%TF.GenerationSoftware,KiCad,Pcbnew,8.0.4*%
%TF.CreationDate,2024-09-18T19:09:23-07:00*%
%TF.ProjectId,ptpe_pcb,70747065-5f70-4636-922e-6b696361645f,rev?*%
%TF.SameCoordinates,Original*%
%TF.FileFunction,Copper,L1,Top*%
%TF.FilePolarity,Positive*%
%FSLAX46Y46*%
G04 Gerber Fmt 4.6, Leading zero omitted, Abs format (unit mm)*
G04 Created by KiCad (PCBNEW 8.0.4) date 2024-09-18 19:09:23*
%MOMM*%
%LPD*%
G01*
G04 APERTURE LIST*
%TA.AperFunction,NonConductor*%
%ADD10C,0.200000*%
%TD*%
%TA.AperFunction,ComponentPad*%
%ADD11R,1.498000X1.498000*%
%TD*%
%TA.AperFunction,ComponentPad*%
%ADD12C,1.498000*%
%TD*%
%TA.AperFunction,SMDPad,CuDef*%
%ADD13C,1.500000*%
%TD*%
%TA.AperFunction,SMDPad,CuDef*%
%ADD14R,1.700000X3.500000*%
%TD*%
%TA.AperFunction,SMDPad,CuDef*%
%ADD15R,3.500000X1.700000*%
%TD*%
%TA.AperFunction,ComponentPad*%
%ADD16C,1.370000*%
%TD*%
%TA.AperFunction,ViaPad*%
%ADD17C,0.600000*%
%TD*%
%TA.AperFunction,Conductor*%
%ADD18C,0.200000*%
%TD*%
%TA.AperFunction,Conductor*%
%ADD19C,0.500000*%
%TD*%
G04 APERTURE END LIST*
D10*
X105815000Y-54850000D02*
X162045000Y-54850000D01*
X162045000Y-125950000D01*
X105815000Y-125950000D01*
X105815000Y-54850000D01*
D11*
%TO.P,Misc. 1,1*%
%TO.N,GND*%
X117140000Y-121635000D03*
D12*
%TO.P,Misc. 1,2*%
X117140000Y-115135000D03*
%TO.P,Misc. 1,3*%
X121640000Y-121635000D03*
%TO.P,Misc. 1,4*%
%TO.N,Net-(Pico1-GPIO16)*%
X121640000Y-115135000D03*
%TD*%
D13*
%TO.P,CS,1*%
%TO.N,CS*%
X155320000Y-74430000D03*
%TD*%
D14*
%TO.P,Pico1,1,GPIO0*%
%TO.N,unconnected-(Pico1-GPIO0-Pad1)*%
X159985000Y-88820000D03*
%TO.P,Pico1,2,GPIO1*%
%TO.N,unconnected-(Pico1-GPIO1-Pad2)*%
X157445000Y-88820000D03*
%TO.P,Pico1,3,GND*%
%TO.N,GND*%
X154905000Y-88820000D03*
%TO.P,Pico1,4,GPIO2*%
%TO.N,SCLK*%
X152365000Y-88820000D03*
%TO.P,Pico1,5,GPIO3*%
%TO.N,MOSI*%
X149825000Y-88820000D03*
%TO.P,Pico1,6,GPIO4*%
%TO.N,MISO*%
X147285000Y-88820000D03*
%TO.P,Pico1,7,GPIO5*%
%TO.N,CS*%
X144745000Y-88820000D03*
%TO.P,Pico1,8,GND*%
%TO.N,GND*%
X142205000Y-88820000D03*
%TO.P,Pico1,9,GPIO6*%
%TO.N,unconnected-(Pico1-GPIO6-Pad9)*%
X139665000Y-88820000D03*
%TO.P,Pico1,10,GPIO7*%
%TO.N,unconnected-(Pico1-GPIO7-Pad10)*%
X137125000Y-88820000D03*
%TO.P,Pico1,11,GPIO8*%
%TO.N,unconnected-(Pico1-GPIO8-Pad11)*%
X134585000Y-88820000D03*
%TO.P,Pico1,12,GPIO9*%
%TO.N,CS*%
X132045000Y-88820000D03*
%TO.P,Pico1,13,GND*%
%TO.N,GND*%
X129505000Y-88820000D03*
%TO.P,Pico1,14,GPIO10*%
%TO.N,A0*%
X126965000Y-88820000D03*
%TO.P,Pico1,15,GPIO11*%
%TO.N,RST*%
X124425000Y-88820000D03*
%TO.P,Pico1,16,GPIO12*%
%TO.N,unconnected-(Pico1-GPIO12-Pad16)*%
X121885000Y-88820000D03*
%TO.P,Pico1,17,GPIO13*%
%TO.N,unconnected-(Pico1-GPIO13-Pad17)*%
X119345000Y-88820000D03*
%TO.P,Pico1,18,GND*%
%TO.N,GND*%
X116805000Y-88820000D03*
%TO.P,Pico1,19,GPIO14*%
%TO.N,SCL*%
X114265000Y-88820000D03*
%TO.P,Pico1,20,GPIO15*%
%TO.N,SDA*%
X111725000Y-88820000D03*
%TO.P,Pico1,21,GPIO16*%
%TO.N,Net-(Pico1-GPIO16)*%
X111725000Y-108400000D03*
%TO.P,Pico1,22,GPIO17*%
%TO.N,Net-(Pico1-GPIO17)*%
X114265000Y-108400000D03*
%TO.P,Pico1,23,GND*%
%TO.N,GND*%
X116805000Y-108400000D03*
%TO.P,Pico1,24,GPIO18*%
%TO.N,Net-(Pico1-GPIO18)*%
X119345000Y-108400000D03*
%TO.P,Pico1,25,GPIO19*%
%TO.N,Net-(Pico1-GPIO19)*%
X121885000Y-108400000D03*
%TO.P,Pico1,26,GPIO20*%
%TO.N,Net-(Pico1-GPIO20)*%
X124425000Y-108400000D03*
%TO.P,Pico1,27,GPIO21*%
%TO.N,unconnected-(Pico1-GPIO21-Pad27)*%
X126965000Y-108400000D03*
%TO.P,Pico1,28,GND*%
%TO.N,GND*%
X129505000Y-108400000D03*
%TO.P,Pico1,29,GPIO22*%
%TO.N,unconnected-(Pico1-GPIO22-Pad29)*%
X132045000Y-108400000D03*
%TO.P,Pico1,30,RUN*%
%TO.N,unconnected-(Pico1-RUN-Pad30)*%
X134585000Y-108400000D03*
%TO.P,Pico1,31,GPIO26_ADC0*%
%TO.N,unconnected-(Pico1-GPIO26_ADC0-Pad31)*%
X137125000Y-108400000D03*
%TO.P,Pico1,32,GPIO27_ADC1*%
%TO.N,unconnected-(Pico1-GPIO27_ADC1-Pad32)*%
X139665000Y-108400000D03*
%TO.P,Pico1,33,AGND*%
%TO.N,GND*%
X142205000Y-108400000D03*
%TO.P,Pico1,34,GPIO28_ADC2*%
%TO.N,unconnected-(Pico1-GPIO28_ADC2-Pad34)*%
X144745000Y-108400000D03*
%TO.P,Pico1,35,ADC_VREF*%
%TO.N,unconnected-(Pico1-ADC_VREF-Pad35)*%
X147285000Y-108400000D03*
%TO.P,Pico1,36,3V3*%
%TO.N,+3V3*%
X149825000Y-108400000D03*
%TO.P,Pico1,37,3V3_EN*%
%TO.N,unconnected-(Pico1-3V3_EN-Pad37)*%
X152365000Y-108400000D03*
%TO.P,Pico1,38,GND*%
%TO.N,GND*%
X154905000Y-108400000D03*
%TO.P,Pico1,39,VSYS*%
%TO.N,unconnected-(Pico1-VSYS-Pad39)*%
X157445000Y-108400000D03*
%TO.P,Pico1,40,VBUS*%
%TO.N,+5V*%
X159985000Y-108400000D03*
D15*
%TO.P,Pico1,41,SWCLK*%
%TO.N,unconnected-(Pico1-SWCLK-Pad41)*%
X111055000Y-96070000D03*
%TO.P,Pico1,42,GND*%
%TO.N,GND*%
X111055000Y-98610000D03*
%TO.P,Pico1,43,SWDIO*%
%TO.N,unconnected-(Pico1-SWDIO-Pad43)*%
X111055000Y-101150000D03*
%TD*%
D11*
%TO.P,Left/Down,1*%
%TO.N,GND*%
X124170000Y-121645000D03*
D12*
%TO.P,Left/Down,2*%
X124170000Y-115145000D03*
%TO.P,Left/Down,3*%
X128670000Y-121645000D03*
%TO.P,Left/Down,4*%
%TO.N,Net-(Pico1-GPIO17)*%
X128670000Y-115145000D03*
%TD*%
D11*
%TO.P,Right/Up,1*%
%TO.N,GND*%
X138370000Y-121650000D03*
D12*
%TO.P,Right/Up,2*%
X138370000Y-115150000D03*
%TO.P,Right/Up,3*%
X142870000Y-121650000D03*
%TO.P,Right/Up,4*%
%TO.N,Net-(Pico1-GPIO19)*%
X142870000Y-115150000D03*
%TD*%
D11*
%TO.P,Select,1*%
%TO.N,GND*%
X131220000Y-121650000D03*
D12*
%TO.P,Select,2*%
X131220000Y-115150000D03*
%TO.P,Select,3*%
X135720000Y-121650000D03*
%TO.P,Select,4*%
%TO.N,Net-(Pico1-GPIO18)*%
X135720000Y-115150000D03*
%TD*%
D13*
%TO.P,REF\u002A\u002A,1*%
%TO.N,SCLK*%
X155300000Y-82450000D03*
%TD*%
D11*
%TO.P,Misc. 2,1*%
%TO.N,GND*%
X145450000Y-121650000D03*
D12*
%TO.P,Misc. 2,2*%
X145450000Y-115150000D03*
%TO.P,Misc. 2,3*%
X149950000Y-121650000D03*
%TO.P,Misc. 2,4*%
%TO.N,Net-(Pico1-GPIO20)*%
X149950000Y-115150000D03*
%TD*%
D13*
%TO.P,REF\u002A\u002A,1*%
%TO.N,MOSI*%
X155320000Y-77110000D03*
%TD*%
%TO.P,REF\u002A\u002A,1*%
%TO.N,MISO*%
X155240000Y-79780000D03*
%TD*%
D16*
%TO.P,REF\u002A\u002A,01*%
%TO.N,+5V*%
X109900000Y-61910000D03*
%TO.P,REF\u002A\u002A,02*%
%TO.N,GND*%
X109900000Y-64450000D03*
%TO.P,REF\u002A\u002A,03*%
%TO.N,CS*%
X109900000Y-66990000D03*
%TO.P,REF\u002A\u002A,04*%
%TO.N,RST*%
X109900000Y-69530000D03*
%TO.P,REF\u002A\u002A,05*%
%TO.N,A0*%
X109900000Y-72070000D03*
%TO.P,REF\u002A\u002A,06*%
%TO.N,SDA*%
X109900000Y-74610000D03*
%TO.P,REF\u002A\u002A,07*%
%TO.N,SCL*%
X109900000Y-77150000D03*
%TO.P,REF\u002A\u002A,08*%
%TO.N,+3V3*%
X109900000Y-79690000D03*
%TD*%
D17*
%TO.N,GND*%
X110390000Y-118450000D03*
X110410000Y-119190000D03*
X109710000Y-118450000D03*
X109670000Y-119140000D03*
X148030000Y-118020000D03*
X148050000Y-118760000D03*
X147350000Y-118020000D03*
X147310000Y-118710000D03*
X140940000Y-118030000D03*
X140960000Y-118770000D03*
X140260000Y-118030000D03*
X140220000Y-118720000D03*
X133800000Y-118010000D03*
X133820000Y-118750000D03*
X133120000Y-118010000D03*
X133080000Y-118700000D03*
X126720000Y-118050000D03*
X126740000Y-118790000D03*
X126040000Y-118050000D03*
X126000000Y-118740000D03*
X119680000Y-118880000D03*
X118940000Y-118830000D03*
X119660000Y-118140000D03*
X118980000Y-118140000D03*
%TO.N,RST*%
X124360000Y-85540000D03*
%TO.N,GND*%
X143120000Y-86160000D03*
X128250000Y-95690000D03*
X117340000Y-91330000D03*
X142490000Y-85320000D03*
X117520000Y-105740000D03*
X155300000Y-86110000D03*
X134800000Y-84180000D03*
X127460000Y-77280000D03*
X141760000Y-91310000D03*
X128950000Y-86290000D03*
X155160000Y-121550000D03*
X130030000Y-91260000D03*
X128810000Y-105590000D03*
X142730000Y-91300000D03*
X130000000Y-86290000D03*
X128340000Y-97270000D03*
X154280000Y-86100000D03*
X132290000Y-80680000D03*
X155390000Y-105890000D03*
X113610000Y-97870000D03*
X129020000Y-110850000D03*
X155280000Y-110890000D03*
X155990000Y-121540000D03*
X120420000Y-69970000D03*
X116130000Y-86250000D03*
X130030000Y-110890000D03*
X117440000Y-86250000D03*
X142700000Y-110970000D03*
X154330000Y-91440000D03*
X155380000Y-91440000D03*
X116970000Y-65760000D03*
X124680000Y-73150000D03*
X141530000Y-105520000D03*
X142800000Y-105550000D03*
X130000000Y-105560000D03*
X113610000Y-99140000D03*
X154410000Y-105880000D03*
X141450000Y-110960000D03*
X154440000Y-110920000D03*
X116160000Y-91320000D03*
X116230000Y-105760000D03*
X155520000Y-120570000D03*
X129050000Y-91220000D03*
%TO.N,+5V*%
X159960000Y-105130000D03*
%TO.N,+3V3*%
X149825000Y-105180000D03*
%TD*%
D18*
%TO.N,Net-(Pico1-GPIO20)*%
X124425000Y-107500000D02*
X124425000Y-110515000D01*
X125870000Y-111960000D02*
X146760000Y-111960000D01*
X124425000Y-110515000D02*
X125870000Y-111960000D01*
X146760000Y-111960000D02*
X149950000Y-115150000D01*
%TO.N,Net-(Pico1-GPIO19)*%
X121885000Y-107500000D02*
X121885000Y-110545000D01*
X121885000Y-110545000D02*
X123710000Y-112370000D01*
X123710000Y-112370000D02*
X140090000Y-112370000D01*
X140090000Y-112370000D02*
X142870000Y-115150000D01*
%TO.N,Net-(Pico1-GPIO16)*%
X111725000Y-107500000D02*
X111725000Y-110475000D01*
X111725000Y-110475000D02*
X115200000Y-113950000D01*
X115200000Y-113950000D02*
X120455000Y-113950000D01*
X120455000Y-113950000D02*
X121640000Y-115135000D01*
%TO.N,Net-(Pico1-GPIO18)*%
X119345000Y-107500000D02*
X119345000Y-111015000D01*
X119345000Y-111015000D02*
X121310000Y-112980000D01*
X121310000Y-112980000D02*
X133550000Y-112980000D01*
X133550000Y-112980000D02*
X135720000Y-115150000D01*
%TO.N,Net-(Pico1-GPIO17)*%
X114265000Y-107500000D02*
X114265000Y-110195000D01*
X114265000Y-110195000D02*
X117450000Y-113380000D01*
X117450000Y-113380000D02*
X126905000Y-113380000D01*
X126905000Y-113380000D02*
X128670000Y-115145000D01*
%TO.N,SCL*%
X109900000Y-77150000D02*
X109910000Y-77150000D01*
X109910000Y-77150000D02*
X114265000Y-81505000D01*
X114265000Y-81505000D02*
X114265000Y-89720000D01*
%TO.N,SDA*%
X109900000Y-74610000D02*
X108200000Y-76310000D01*
X108200000Y-82700000D02*
X111725000Y-86225000D01*
X108200000Y-76310000D02*
X108200000Y-82700000D01*
X111725000Y-86225000D02*
X111725000Y-89720000D01*
%TO.N,RST*%
X124425000Y-85605000D02*
X124360000Y-85540000D01*
X124425000Y-89720000D02*
X124425000Y-85605000D01*
%TO.N,CS*%
X109900000Y-66990000D02*
X113400000Y-66990000D01*
X113400000Y-66990000D02*
X132045000Y-85635000D01*
X132045000Y-85635000D02*
X132045000Y-89720000D01*
%TO.N,A0*%
X126965000Y-89720000D02*
X126965000Y-86275000D01*
X126965000Y-86275000D02*
X112760000Y-72070000D01*
X112760000Y-72070000D02*
X109900000Y-72070000D01*
%TO.N,MISO*%
X147285000Y-89720000D02*
X147285000Y-84475000D01*
X147285000Y-84475000D02*
X151980000Y-79780000D01*
X151980000Y-79780000D02*
X155240000Y-79780000D01*
%TO.N,CS*%
X155320000Y-74430000D02*
X155300000Y-74430000D01*
X144745000Y-84985000D02*
X144745000Y-89720000D01*
X155300000Y-74430000D02*
X144745000Y-84985000D01*
%TO.N,MOSI*%
X149825000Y-89720000D02*
X149825000Y-84155000D01*
X156550000Y-80380000D02*
X156550000Y-78340000D01*
X149825000Y-84155000D02*
X152880000Y-81100000D01*
X152880000Y-81100000D02*
X155830000Y-81100000D01*
X155830000Y-81100000D02*
X156550000Y-80380000D01*
X156550000Y-78340000D02*
X155320000Y-77110000D01*
D19*
%TO.N,+5V*%
X159985000Y-107500000D02*
X159985000Y-105155000D01*
X159985000Y-105155000D02*
X159960000Y-105130000D01*
D18*
%TO.N,SCLK*%
X155300000Y-82450000D02*
X153400000Y-82450000D01*
X152365000Y-83485000D02*
X152365000Y-89720000D01*
X153400000Y-82450000D02*
X152365000Y-83485000D01*
D19*
%TO.N,+3V3*%
X149825000Y-105180000D02*
X149825000Y-107500000D01*
%TD*%
%TA.AperFunction,Conductor*%
%TO.N,GND*%
G36*
X161387539Y-55470185D02*
G01*
X161433294Y-55522989D01*
X161444500Y-55574500D01*
X161444500Y-86676464D01*
X161424815Y-86743503D01*
X161372011Y-86789258D01*
X161302853Y-86799202D01*
X161239297Y-86770177D01*
X161221234Y-86750776D01*
X161211608Y-86737918D01*
X161192546Y-86712454D01*
X161192544Y-86712453D01*
X161192544Y-86712452D01*
X161077335Y-86626206D01*
X161077328Y-86626202D01*
X160942482Y-86575908D01*
X160942483Y-86575908D01*
X160882883Y-86569501D01*
X160882881Y-86569500D01*
X160882873Y-86569500D01*
X160882864Y-86569500D01*
X159087129Y-86569500D01*
X159087123Y-86569501D01*
X159027516Y-86575908D01*
X158892671Y-86626202D01*
X158892669Y-86626203D01*
X158789311Y-86703578D01*
X158723847Y-86727995D01*
X158655574Y-86713144D01*
X158640689Y-86703578D01*
X158537330Y-86626203D01*
X158537328Y-86626202D01*
X158402482Y-86575908D01*
X158402483Y-86575908D01*
X158342883Y-86569501D01*
X158342881Y-86569500D01*
X158342873Y-86569500D01*
X158342864Y-86569500D01*
X156547129Y-86569500D01*
X156547123Y-86569501D01*
X156487516Y-86575908D01*
X156352671Y-86626202D01*
X156352664Y-86626206D01*
X156237455Y-86712452D01*
X156237452Y-86712455D01*
X156151206Y-86827664D01*
X156151202Y-86827671D01*
X156100908Y-86962517D01*
X156094697Y-87020293D01*
X156094501Y-87022123D01*
X156094500Y-87022135D01*
X156094500Y-90617870D01*
X156094501Y-90617876D01*
X156100908Y-90677483D01*
X156151202Y-90812328D01*
X156151206Y-90812335D01*
X156237452Y-90927544D01*
X156237455Y-90927547D01*
X156352664Y-91013793D01*
X156352671Y-91013797D01*
X156487517Y-91064091D01*
X156487516Y-91064091D01*
X156494444Y-91064835D01*
X156547127Y-91070500D01*
X158342872Y-91070499D01*
X158402483Y-91064091D01*
X158537331Y-91013796D01*
X158640690Y-90936421D01*
X158706152Y-90912004D01*
X158774425Y-90926855D01*
X158789303Y-90936416D01*
X158892665Y-91013793D01*
X158892668Y-91013795D01*
X158892671Y-91013797D01*
X159027517Y-91064091D01*
X159027516Y-91064091D01*
X159034444Y-91064835D01*
X159087127Y-91070500D01*
X160882872Y-91070499D01*
X160942483Y-91064091D01*
X161077331Y-91013796D01*
X161192546Y-90927546D01*
X161221234Y-90889222D01*
X161277167Y-90847353D01*
X161346859Y-90842369D01*
X161408182Y-90875854D01*
X161441666Y-90937177D01*
X161444500Y-90963535D01*
X161444500Y-106246203D01*
X161424815Y-106313242D01*
X161372011Y-106358997D01*
X161302853Y-106368941D01*
X161239297Y-106339916D01*
X161219196Y-106317712D01*
X160758196Y-105664629D01*
X160735617Y-105598508D01*
X160735500Y-105593120D01*
X160735500Y-105358523D01*
X160742459Y-105317567D01*
X160745368Y-105309255D01*
X160759931Y-105180003D01*
X160765565Y-105130003D01*
X160765565Y-105129996D01*
X160745369Y-104950750D01*
X160745368Y-104950745D01*
X160685788Y-104780476D01*
X160589815Y-104627737D01*
X160462262Y-104500184D01*
X160309523Y-104404211D01*
X160139254Y-104344631D01*
X160139249Y-104344630D01*
X159960004Y-104324435D01*
X159959996Y-104324435D01*
X159780750Y-104344630D01*
X159780745Y-104344631D01*
X159610476Y-104404211D01*
X159457737Y-104500184D01*
X159330184Y-104627737D01*
X159234211Y-104780476D01*
X159174631Y-104950745D01*
X159174630Y-104950750D01*
X159154435Y-105129996D01*
X159154435Y-105130003D01*
X159174630Y-105309249D01*
X159174633Y-105309262D01*
X159227541Y-105460461D01*
X159234500Y-105501416D01*
X159234500Y-105593119D01*
X159214815Y-105660158D01*
X159211804Y-105664628D01*
X158802033Y-106245137D01*
X158747291Y-106288554D01*
X158677766Y-106295483D01*
X158626418Y-106272894D01*
X158537335Y-106206206D01*
X158537328Y-106206202D01*
X158402482Y-106155908D01*
X158402483Y-106155908D01*
X158342883Y-106149501D01*
X158342881Y-106149500D01*
X158342873Y-106149500D01*
X158342864Y-106149500D01*
X156547129Y-106149500D01*
X156547123Y-106149501D01*
X156487516Y-106155908D01*
X156352671Y-106206202D01*
X156352664Y-106206206D01*
X156237455Y-106292452D01*
X156237452Y-106292455D01*
X156151206Y-106407664D01*
X156151202Y-106407671D01*
X156100908Y-106542517D01*
X156094501Y-106602116D01*
X156094501Y-106602123D01*
X156094500Y-106602135D01*
X156094500Y-110197870D01*
X156094501Y-110197876D01*
X156100908Y-110257483D01*
X156151202Y-110392328D01*
X156151206Y-110392335D01*
X156237452Y-110507544D01*
X156237455Y-110507547D01*
X156352664Y-110593793D01*
X156352671Y-110593797D01*
X156487517Y-110644091D01*
X156487516Y-110644091D01*
X156494444Y-110644835D01*
X156547127Y-110650500D01*
X158342872Y-110650499D01*
X158402483Y-110644091D01*
X158537331Y-110593796D01*
X158640690Y-110516421D01*
X158706152Y-110492004D01*
X158774425Y-110506855D01*
X158789303Y-110516416D01*
X158866061Y-110573877D01*
X158892668Y-110593795D01*
X158892671Y-110593797D01*
X159027517Y-110644091D01*
X159027516Y-110644091D01*
X159034444Y-110644835D01*
X159087127Y-110650500D01*
X160882872Y-110650499D01*
X160942483Y-110644091D01*
X161077331Y-110593796D01*
X161192546Y-110507546D01*
X161221234Y-110469222D01*
X161277167Y-110427353D01*
X161346859Y-110422369D01*
X161408182Y-110455854D01*
X161441666Y-110517177D01*
X161444500Y-110543535D01*
X161444500Y-125225500D01*
X161424815Y-125292539D01*
X161372011Y-125338294D01*
X161320500Y-125349500D01*
X106539500Y-125349500D01*
X106472461Y-125329815D01*
X106426706Y-125277011D01*
X106415500Y-125225500D01*
X106415500Y-106602135D01*
X110374500Y-106602135D01*
X110374500Y-110197870D01*
X110374501Y-110197876D01*
X110380908Y-110257483D01*
X110431202Y-110392328D01*
X110431206Y-110392335D01*
X110517452Y-110507544D01*
X110517455Y-110507547D01*
X110632664Y-110593793D01*
X110632671Y-110593797D01*
X110677618Y-110610561D01*
X110767517Y-110644091D01*
X110827127Y-110650500D01*
X110918483Y-110650499D01*
X110985521Y-110670183D01*
X111000913Y-110681864D01*
X111035251Y-110712419D01*
X111681239Y-111287241D01*
X111711705Y-111312291D01*
X111714647Y-111314710D01*
X111723574Y-111322809D01*
X114715139Y-114314374D01*
X114715149Y-114314385D01*
X114719479Y-114318715D01*
X114719480Y-114318716D01*
X114831284Y-114430520D01*
X114918095Y-114480639D01*
X114918097Y-114480641D01*
X114956151Y-114502611D01*
X114968215Y-114509577D01*
X115120943Y-114550500D01*
X120025809Y-114550500D01*
X120092848Y-114570185D01*
X120138603Y-114622989D01*
X120143083Y-114634218D01*
X120172897Y-114721020D01*
X120456240Y-115545989D01*
X120458736Y-115554164D01*
X120461369Y-115563987D01*
X120462900Y-115567271D01*
X120467141Y-115577548D01*
X120469504Y-115584092D01*
X120471243Y-115588910D01*
X120471482Y-115589541D01*
X120500251Y-115652230D01*
X120503595Y-115657861D01*
X120503377Y-115657990D01*
X120511679Y-115671877D01*
X120553768Y-115762137D01*
X120553770Y-115762141D01*
X120679167Y-115941226D01*
X120679172Y-115941232D01*
X120833767Y-116095827D01*
X120833773Y-116095832D01*
X121012858Y-116221229D01*
X121012860Y-116221230D01*
X121012863Y-116221232D01*
X121211013Y-116313631D01*
X121422198Y-116370218D01*
X121577770Y-116383828D01*
X121639998Y-116389273D01*
X121640000Y-116389273D01*
X121640002Y-116389273D01*
X121694450Y-116384509D01*
X121857802Y-116370218D01*
X122068987Y-116313631D01*
X122267137Y-116221232D01*
X122446231Y-116095829D01*
X122600829Y-115941231D01*
X122726232Y-115762137D01*
X122818631Y-115563987D01*
X122875218Y-115352802D01*
X122894273Y-115135000D01*
X122875218Y-114917198D01*
X122821312Y-114716020D01*
X122818633Y-114706020D01*
X122818632Y-114706019D01*
X122818631Y-114706013D01*
X122726232Y-114507864D01*
X122600829Y-114328769D01*
X122464239Y-114192179D01*
X122430756Y-114130859D01*
X122435740Y-114061167D01*
X122477611Y-114005233D01*
X122543076Y-113980816D01*
X122551922Y-113980500D01*
X126604903Y-113980500D01*
X126671942Y-114000185D01*
X126692584Y-114016819D01*
X127075954Y-114400189D01*
X127105549Y-114447590D01*
X127486240Y-115555988D01*
X127488736Y-115564164D01*
X127491369Y-115573987D01*
X127492900Y-115577271D01*
X127497141Y-115587548D01*
X127501240Y-115598901D01*
X127501485Y-115599548D01*
X127503780Y-115604548D01*
X127530251Y-115662230D01*
X127533595Y-115667861D01*
X127533377Y-115667990D01*
X127541679Y-115681877D01*
X127583768Y-115772137D01*
X127583770Y-115772141D01*
X127709167Y-115951226D01*
X127709172Y-115951232D01*
X127863767Y-116105827D01*
X127863773Y-116105832D01*
X128042858Y-116231229D01*
X128042860Y-116231230D01*
X128042863Y-116231232D01*
X128241013Y-116323631D01*
X128241019Y-116323632D01*
X128241020Y-116323633D01*
X128291846Y-116337251D01*
X128452198Y-116380218D01*
X128607770Y-116393828D01*
X128669998Y-116399273D01*
X128670000Y-116399273D01*
X128670002Y-116399273D01*
X128724450Y-116394509D01*
X128887802Y-116380218D01*
X129098987Y-116323631D01*
X129297137Y-116231232D01*
X129476231Y-116105829D01*
X129630829Y-115951231D01*
X129756232Y-115772137D01*
X129848631Y-115573987D01*
X129905218Y-115362802D01*
X129921550Y-115176114D01*
X129924273Y-115145001D01*
X129924273Y-115144998D01*
X129918828Y-115082770D01*
X129905218Y-114927198D01*
X129848631Y-114716013D01*
X129761719Y-114529631D01*
X129756233Y-114517866D01*
X129630830Y-114338770D01*
X129606434Y-114314374D01*
X129476231Y-114184171D01*
X129476227Y-114184168D01*
X129476226Y-114184167D01*
X129297141Y-114058770D01*
X129297137Y-114058768D01*
X129115191Y-113973925D01*
X129111053Y-113971900D01*
X129109077Y-113970888D01*
X129109073Y-113970886D01*
X129106420Y-113969757D01*
X129102591Y-113968049D01*
X129098991Y-113966370D01*
X129098985Y-113966368D01*
X129089165Y-113963736D01*
X129080991Y-113961240D01*
X128674933Y-113821776D01*
X128617923Y-113781382D01*
X128591802Y-113716579D01*
X128604862Y-113647941D01*
X128652958Y-113597260D01*
X128715212Y-113580500D01*
X133249903Y-113580500D01*
X133316942Y-113600185D01*
X133337584Y-113616819D01*
X134125954Y-114405189D01*
X134155549Y-114452590D01*
X134536240Y-115560988D01*
X134538736Y-115569164D01*
X134541369Y-115578987D01*
X134542900Y-115582271D01*
X134547141Y-115592548D01*
X134549666Y-115599541D01*
X134551243Y-115603910D01*
X134551482Y-115604541D01*
X134580251Y-115667230D01*
X134583595Y-115672861D01*
X134583377Y-115672990D01*
X134591679Y-115686877D01*
X134633768Y-115777137D01*
X134633770Y-115777141D01*
X134759167Y-115956226D01*
X134759172Y-115956232D01*
X134913767Y-116110827D01*
X134913773Y-116110832D01*
X135092858Y-116236229D01*
X135092860Y-116236230D01*
X135092863Y-116236232D01*
X135291013Y-116328631D01*
X135502198Y-116385218D01*
X135657770Y-116398828D01*
X135719998Y-116404273D01*
X135720000Y-116404273D01*
X135720002Y-116404273D01*
X135777151Y-116399273D01*
X135937802Y-116385218D01*
X136148987Y-116328631D01*
X136347137Y-116236232D01*
X136526231Y-116110829D01*
X136680829Y-115956231D01*
X136806232Y-115777137D01*
X136898631Y-115578987D01*
X136955218Y-115367802D01*
X136974273Y-115150000D01*
X136973835Y-115144998D01*
X136955218Y-114932203D01*
X136955218Y-114932198D01*
X136898631Y-114721013D01*
X136806232Y-114522864D01*
X136723836Y-114405189D01*
X136680830Y-114343770D01*
X136651434Y-114314374D01*
X136526231Y-114189171D01*
X136526227Y-114189168D01*
X136526226Y-114189167D01*
X136347141Y-114063770D01*
X136347137Y-114063768D01*
X136165191Y-113978925D01*
X136161053Y-113976900D01*
X136159077Y-113975888D01*
X136159073Y-113975886D01*
X136156420Y-113974757D01*
X136152591Y-113973049D01*
X136148991Y-113971370D01*
X136148985Y-113971368D01*
X136139165Y-113968736D01*
X136130990Y-113966240D01*
X135022589Y-113585548D01*
X134975188Y-113555953D01*
X134601416Y-113182181D01*
X134567931Y-113120858D01*
X134572915Y-113051166D01*
X134614787Y-112995233D01*
X134680251Y-112970816D01*
X134689097Y-112970500D01*
X139789903Y-112970500D01*
X139856942Y-112990185D01*
X139877584Y-113006819D01*
X141275954Y-114405189D01*
X141305549Y-114452590D01*
X141686240Y-115560988D01*
X141688736Y-115569164D01*
X141691369Y-115578987D01*
X141692900Y-115582271D01*
X141697141Y-115592548D01*
X141699666Y-115599541D01*
X141701243Y-115603910D01*
X141701482Y-115604541D01*
X141730251Y-115667230D01*
X141733595Y-115672861D01*
X141733377Y-115672990D01*
X141741679Y-115686877D01*
X141783768Y-115777137D01*
X141783770Y-115777141D01*
X141909167Y-115956226D01*
X141909172Y-115956232D01*
X142063767Y-116110827D01*
X142063773Y-116110832D01*
X142242858Y-116236229D01*
X142242860Y-116236230D01*
X142242863Y-116236232D01*
X142441013Y-116328631D01*
X142652198Y-116385218D01*
X142807770Y-116398828D01*
X142869998Y-116404273D01*
X142870000Y-116404273D01*
X142870002Y-116404273D01*
X142927151Y-116399273D01*
X143087802Y-116385218D01*
X143298987Y-116328631D01*
X143497137Y-116236232D01*
X143676231Y-116110829D01*
X143830829Y-115956231D01*
X143956232Y-115777137D01*
X144048631Y-115578987D01*
X144105218Y-115367802D01*
X144124273Y-115150000D01*
X144123835Y-115144998D01*
X144105218Y-114932203D01*
X144105218Y-114932198D01*
X144048631Y-114721013D01*
X143956232Y-114522864D01*
X143873836Y-114405189D01*
X143830830Y-114343770D01*
X143801434Y-114314374D01*
X143676231Y-114189171D01*
X143676227Y-114189168D01*
X143676226Y-114189167D01*
X143497141Y-114063770D01*
X143497137Y-114063768D01*
X143315191Y-113978925D01*
X143311053Y-113976900D01*
X143309077Y-113975888D01*
X143309073Y-113975886D01*
X143306420Y-113974757D01*
X143302591Y-113973049D01*
X143298991Y-113971370D01*
X143298985Y-113971368D01*
X143289165Y-113968736D01*
X143280990Y-113966240D01*
X142172590Y-113585548D01*
X142125189Y-113555953D01*
X141751417Y-113182181D01*
X141341415Y-112772180D01*
X141307931Y-112710858D01*
X141312915Y-112641167D01*
X141354787Y-112585233D01*
X141420251Y-112560816D01*
X141429097Y-112560500D01*
X146459903Y-112560500D01*
X146526942Y-112580185D01*
X146547584Y-112596819D01*
X148355954Y-114405189D01*
X148385549Y-114452590D01*
X148766240Y-115560988D01*
X148768736Y-115569164D01*
X148771369Y-115578987D01*
X148772900Y-115582271D01*
X148777141Y-115592548D01*
X148779666Y-115599541D01*
X148781243Y-115603910D01*
X148781482Y-115604541D01*
X148810251Y-115667230D01*
X148813595Y-115672861D01*
X148813377Y-115672990D01*
X148821679Y-115686877D01*
X148863768Y-115777137D01*
X148863770Y-115777141D01*
X148989167Y-115956226D01*
X148989172Y-115956232D01*
X149143767Y-116110827D01*
X149143773Y-116110832D01*
X149322858Y-116236229D01*
X149322860Y-116236230D01*
X149322863Y-116236232D01*
X149521013Y-116328631D01*
X149732198Y-116385218D01*
X149887770Y-116398828D01*
X149949998Y-116404273D01*
X149950000Y-116404273D01*
X149950002Y-116404273D01*
X150007151Y-116399273D01*
X150167802Y-116385218D01*
X150378987Y-116328631D01*
X150577137Y-116236232D01*
X150756231Y-116110829D01*
X150910829Y-115956231D01*
X151036232Y-115777137D01*
X151128631Y-115578987D01*
X151185218Y-115367802D01*
X151204273Y-115150000D01*
X151203835Y-115144998D01*
X151185218Y-114932203D01*
X151185218Y-114932198D01*
X151128631Y-114721013D01*
X151036232Y-114522864D01*
X150953836Y-114405189D01*
X150910830Y-114343770D01*
X150881434Y-114314374D01*
X150756231Y-114189171D01*
X150756227Y-114189168D01*
X150756226Y-114189167D01*
X150577141Y-114063770D01*
X150577137Y-114063768D01*
X150395191Y-113978925D01*
X150391053Y-113976900D01*
X150389077Y-113975888D01*
X150389073Y-113975886D01*
X150386420Y-113974757D01*
X150382591Y-113973049D01*
X150378991Y-113971370D01*
X150378985Y-113971368D01*
X150369165Y-113968736D01*
X150360990Y-113966240D01*
X149252589Y-113585548D01*
X149205188Y-113555953D01*
X147247590Y-111598355D01*
X147247588Y-111598352D01*
X147128717Y-111479481D01*
X147128716Y-111479480D01*
X147028573Y-111421663D01*
X147028572Y-111421662D01*
X146991783Y-111400422D01*
X146929438Y-111383717D01*
X146839057Y-111359499D01*
X146680943Y-111359499D01*
X146673347Y-111359499D01*
X146673331Y-111359500D01*
X128442581Y-111359500D01*
X128375542Y-111339815D01*
X128329787Y-111287011D01*
X128318581Y-111235500D01*
X128318581Y-109756017D01*
X128318502Y-109755875D01*
X128315499Y-109728749D01*
X128315499Y-106602135D01*
X130694500Y-106602135D01*
X130694500Y-110197870D01*
X130694501Y-110197876D01*
X130700908Y-110257483D01*
X130751202Y-110392328D01*
X130751206Y-110392335D01*
X130837452Y-110507544D01*
X130837455Y-110507547D01*
X130952664Y-110593793D01*
X130952671Y-110593797D01*
X131087517Y-110644091D01*
X131087516Y-110644091D01*
X131094444Y-110644835D01*
X131147127Y-110650500D01*
X132942872Y-110650499D01*
X133002483Y-110644091D01*
X133137331Y-110593796D01*
X133240690Y-110516421D01*
X133306152Y-110492004D01*
X133374425Y-110506855D01*
X133389303Y-110516416D01*
X133466061Y-110573877D01*
X133492668Y-110593795D01*
X133492671Y-110593797D01*
X133627517Y-110644091D01*
X133627516Y-110644091D01*
X133634444Y-110644835D01*
X133687127Y-110650500D01*
X135482872Y-110650499D01*
X135542483Y-110644091D01*
X135677331Y-110593796D01*
X135780690Y-110516421D01*
X135846152Y-110492004D01*
X135914425Y-110506855D01*
X135929303Y-110516416D01*
X136006061Y-110573877D01*
X136032668Y-110593795D01*
X136032671Y-110593797D01*
X136167517Y-110644091D01*
X136167516Y-110644091D01*
X136174444Y-110644835D01*
X136227127Y-110650500D01*
X138022872Y-110650499D01*
X138082483Y-110644091D01*
X138217331Y-110593796D01*
X138320690Y-110516421D01*
X138386152Y-110492004D01*
X138454425Y-110506855D01*
X138469303Y-110516416D01*
X138546061Y-110573877D01*
X138572668Y-110593795D01*
X138572671Y-110593797D01*
X138707517Y-110644091D01*
X138707516Y-110644091D01*
X138714444Y-110644835D01*
X138767127Y-110650500D01*
X140562872Y-110650499D01*
X140622483Y-110644091D01*
X140757331Y-110593796D01*
X140872546Y-110507546D01*
X140958796Y-110392331D01*
X141009091Y-110257483D01*
X141015500Y-110197873D01*
X141015499Y-106602135D01*
X143394500Y-106602135D01*
X143394500Y-110197870D01*
X143394501Y-110197876D01*
X143400908Y-110257483D01*
X143451202Y-110392328D01*
X143451206Y-110392335D01*
X143537452Y-110507544D01*
X143537455Y-110507547D01*
X143652664Y-110593793D01*
X143652671Y-110593797D01*
X143787517Y-110644091D01*
X143787516Y-110644091D01*
X143794444Y-110644835D01*
X143847127Y-110650500D01*
X145642872Y-110650499D01*
X145702483Y-110644091D01*
X145837331Y-110593796D01*
X145940690Y-110516421D01*
X146006152Y-110492004D01*
X146074425Y-110506855D01*
X146089303Y-110516416D01*
X146166061Y-110573877D01*
X146192668Y-110593795D01*
X146192671Y-110593797D01*
X146327517Y-110644091D01*
X146327516Y-110644091D01*
X146334444Y-110644835D01*
X146387127Y-110650500D01*
X148182872Y-110650499D01*
X148242483Y-110644091D01*
X148377331Y-110593796D01*
X148480690Y-110516421D01*
X148546152Y-110492004D01*
X148614425Y-110506855D01*
X148629303Y-110516416D01*
X148706061Y-110573877D01*
X148732668Y-110593795D01*
X148732671Y-110593797D01*
X148867517Y-110644091D01*
X148867516Y-110644091D01*
X148874444Y-110644835D01*
X148927127Y-110650500D01*
X150722872Y-110650499D01*
X150782483Y-110644091D01*
X150917331Y-110593796D01*
X151020690Y-110516421D01*
X151086152Y-110492004D01*
X151154425Y-110506855D01*
X151169303Y-110516416D01*
X151246061Y-110573877D01*
X151272668Y-110593795D01*
X151272671Y-110593797D01*
X151407517Y-110644091D01*
X151407516Y-110644091D01*
X151414444Y-110644835D01*
X151467127Y-110650500D01*
X153262872Y-110650499D01*
X153322483Y-110644091D01*
X153457331Y-110593796D01*
X153572546Y-110507546D01*
X153658796Y-110392331D01*
X153709091Y-110257483D01*
X153715500Y-110197873D01*
X153715499Y-106602128D01*
X153709091Y-106542517D01*
X153685250Y-106478597D01*
X153658797Y-106407671D01*
X153658793Y-106407664D01*
X153572547Y-106292455D01*
X153572544Y-106292452D01*
X153457335Y-106206206D01*
X153457328Y-106206202D01*
X153322482Y-106155908D01*
X153322483Y-106155908D01*
X153262883Y-106149501D01*
X153262881Y-106149500D01*
X153262873Y-106149500D01*
X153262864Y-106149500D01*
X151467129Y-106149500D01*
X151467123Y-106149501D01*
X151407516Y-106155908D01*
X151272671Y-106206202D01*
X151272668Y-106206204D01*
X151183581Y-106272895D01*
X151118117Y-106297312D01*
X151049844Y-106282460D01*
X151007966Y-106245137D01*
X150980482Y-106206202D01*
X150598196Y-105664629D01*
X150575617Y-105598508D01*
X150575500Y-105593120D01*
X150575500Y-105479972D01*
X150582458Y-105439017D01*
X150610368Y-105359254D01*
X150610369Y-105359249D01*
X150630565Y-105180003D01*
X150630565Y-105179996D01*
X150610369Y-105000750D01*
X150610368Y-105000745D01*
X150550788Y-104830476D01*
X150454815Y-104677737D01*
X150327262Y-104550184D01*
X150174523Y-104454211D01*
X150004254Y-104394631D01*
X150004249Y-104394630D01*
X149825004Y-104374435D01*
X149824996Y-104374435D01*
X149645750Y-104394630D01*
X149645745Y-104394631D01*
X149475476Y-104454211D01*
X149322737Y-104550184D01*
X149195184Y-104677737D01*
X149099211Y-104830476D01*
X149039631Y-105000745D01*
X149039630Y-105000750D01*
X149019435Y-105179996D01*
X149019435Y-105180003D01*
X149039630Y-105359249D01*
X149039631Y-105359254D01*
X149067542Y-105439017D01*
X149074500Y-105479972D01*
X149074500Y-105593119D01*
X149054815Y-105660158D01*
X149051804Y-105664628D01*
X148642033Y-106245137D01*
X148587291Y-106288554D01*
X148517766Y-106295483D01*
X148466418Y-106272894D01*
X148377335Y-106206206D01*
X148377328Y-106206202D01*
X148242482Y-106155908D01*
X148242483Y-106155908D01*
X148182883Y-106149501D01*
X148182881Y-106149500D01*
X148182873Y-106149500D01*
X148182864Y-106149500D01*
X146387129Y-106149500D01*
X146387123Y-106149501D01*
X146327516Y-106155908D01*
X146192671Y-106206202D01*
X146192669Y-106206203D01*
X146089311Y-106283578D01*
X146023847Y-106307995D01*
X145955574Y-106293144D01*
X145940689Y-106283578D01*
X145926418Y-106272895D01*
X145837331Y-106206204D01*
X145837330Y-106206203D01*
X145837328Y-106206202D01*
X145702482Y-106155908D01*
X145702483Y-106155908D01*
X145642883Y-106149501D01*
X145642881Y-106149500D01*
X145642873Y-106149500D01*
X145642864Y-106149500D01*
X143847129Y-106149500D01*
X143847123Y-106149501D01*
X143787516Y-106155908D01*
X143652671Y-106206202D01*
X143652664Y-106206206D01*
X143537455Y-106292452D01*
X143537452Y-106292455D01*
X143451206Y-106407664D01*
X143451202Y-106407671D01*
X143400908Y-106542517D01*
X143394501Y-106602116D01*
X143394501Y-106602123D01*
X143394500Y-106602135D01*
X141015499Y-106602135D01*
X141015499Y-106602128D01*
X141009091Y-106542517D01*
X140985250Y-106478597D01*
X140958797Y-106407671D01*
X140958793Y-106407664D01*
X140872547Y-106292455D01*
X140872544Y-106292452D01*
X140757335Y-106206206D01*
X140757328Y-106206202D01*
X140622482Y-106155908D01*
X140622483Y-106155908D01*
X140562883Y-106149501D01*
X140562881Y-106149500D01*
X140562873Y-106149500D01*
X140562864Y-106149500D01*
X138767129Y-106149500D01*
X138767123Y-106149501D01*
X138707516Y-106155908D01*
X138572671Y-106206202D01*
X138572669Y-106206203D01*
X138469311Y-106283578D01*
X138403847Y-106307995D01*
X138335574Y-106293144D01*
X138320689Y-106283578D01*
X138306418Y-106272895D01*
X138217331Y-106206204D01*
X138217330Y-106206203D01*
X138217328Y-106206202D01*
X138082482Y-106155908D01*
X138082483Y-106155908D01*
X138022883Y-106149501D01*
X138022881Y-106149500D01*
X138022873Y-106149500D01*
X138022864Y-106149500D01*
X136227129Y-106149500D01*
X136227123Y-106149501D01*
X136167516Y-106155908D01*
X136032671Y-106206202D01*
X136032669Y-106206203D01*
X135929311Y-106283578D01*
X135863847Y-106307995D01*
X135795574Y-106293144D01*
X135780689Y-106283578D01*
X135766418Y-106272895D01*
X135677331Y-106206204D01*
X135677330Y-106206203D01*
X135677328Y-106206202D01*
X135542482Y-106155908D01*
X135542483Y-106155908D01*
X135482883Y-106149501D01*
X135482881Y-106149500D01*
X135482873Y-106149500D01*
X135482864Y-106149500D01*
X133687129Y-106149500D01*
X133687123Y-106149501D01*
X133627516Y-106155908D01*
X133492671Y-106206202D01*
X133492669Y-106206203D01*
X133389311Y-106283578D01*
X133323847Y-106307995D01*
X133255574Y-106293144D01*
X133240689Y-106283578D01*
X133226418Y-106272895D01*
X133137331Y-106206204D01*
X133137330Y-106206203D01*
X133137328Y-106206202D01*
X133002482Y-106155908D01*
X133002483Y-106155908D01*
X132942883Y-106149501D01*
X132942881Y-106149500D01*
X132942873Y-106149500D01*
X132942864Y-106149500D01*
X131147129Y-106149500D01*
X131147123Y-106149501D01*
X131087516Y-106155908D01*
X130952671Y-106206202D01*
X130952664Y-106206206D01*
X130837455Y-106292452D01*
X130837452Y-106292455D01*
X130751206Y-106407664D01*
X130751202Y-106407671D01*
X130700908Y-106542517D01*
X130694501Y-106602116D01*
X130694501Y-106602123D01*
X130694500Y-106602135D01*
X128315499Y-106602135D01*
X128315499Y-106602129D01*
X128315498Y-106602123D01*
X128315497Y-106602116D01*
X128309091Y-106542517D01*
X128285250Y-106478597D01*
X128258797Y-106407671D01*
X128258793Y-106407664D01*
X128172547Y-106292455D01*
X128172544Y-106292452D01*
X128057335Y-106206206D01*
X128057328Y-106206202D01*
X127922482Y-106155908D01*
X127922483Y-106155908D01*
X127862883Y-106149501D01*
X127862881Y-106149500D01*
X127862873Y-106149500D01*
X127862864Y-106149500D01*
X126067129Y-106149500D01*
X126067123Y-106149501D01*
X126007516Y-106155908D01*
X125872671Y-106206202D01*
X125872669Y-106206203D01*
X125769311Y-106283578D01*
X125703847Y-106307995D01*
X125635574Y-106293144D01*
X125620689Y-106283578D01*
X125606418Y-106272895D01*
X125517331Y-106206204D01*
X125517330Y-106206203D01*
X125517328Y-106206202D01*
X125382482Y-106155908D01*
X125382483Y-106155908D01*
X125322883Y-106149501D01*
X125322881Y-106149500D01*
X125322873Y-106149500D01*
X125322864Y-106149500D01*
X123527129Y-106149500D01*
X123527123Y-106149501D01*
X123467516Y-106155908D01*
X123332671Y-106206202D01*
X123332669Y-106206203D01*
X123229311Y-106283578D01*
X123163847Y-106307995D01*
X123095574Y-106293144D01*
X123080689Y-106283578D01*
X123066418Y-106272895D01*
X122977331Y-106206204D01*
X122977330Y-106206203D01*
X122977328Y-106206202D01*
X122842482Y-106155908D01*
X122842483Y-106155908D01*
X122782883Y-106149501D01*
X122782881Y-106149500D01*
X122782873Y-106149500D01*
X122782864Y-106149500D01*
X120987129Y-106149500D01*
X120987123Y-106149501D01*
X120927516Y-106155908D01*
X120792671Y-106206202D01*
X120792669Y-106206203D01*
X120689311Y-106283578D01*
X120623847Y-106307995D01*
X120555574Y-106293144D01*
X120540689Y-106283578D01*
X120526418Y-106272895D01*
X120437331Y-106206204D01*
X120437330Y-106206203D01*
X120437328Y-106206202D01*
X120302482Y-106155908D01*
X120302483Y-106155908D01*
X120242883Y-106149501D01*
X120242881Y-106149500D01*
X120242873Y-106149500D01*
X120242864Y-106149500D01*
X118447129Y-106149500D01*
X118447123Y-106149501D01*
X118387516Y-106155908D01*
X118252671Y-106206202D01*
X118252664Y-106206206D01*
X118137455Y-106292452D01*
X118137452Y-106292455D01*
X118051206Y-106407664D01*
X118051202Y-106407671D01*
X118000908Y-106542517D01*
X117994501Y-106602116D01*
X117994501Y-106602123D01*
X117994500Y-106602135D01*
X117994500Y-110030671D01*
X117974815Y-110097710D01*
X117922011Y-110143465D01*
X117870500Y-110154671D01*
X115739499Y-110154671D01*
X115672460Y-110134986D01*
X115626705Y-110082182D01*
X115615499Y-110030671D01*
X115615499Y-106602129D01*
X115615498Y-106602123D01*
X115615497Y-106602116D01*
X115609091Y-106542517D01*
X115585250Y-106478597D01*
X115558797Y-106407671D01*
X115558793Y-106407664D01*
X115472547Y-106292455D01*
X115472544Y-106292452D01*
X115357335Y-106206206D01*
X115357328Y-106206202D01*
X115222482Y-106155908D01*
X115222483Y-106155908D01*
X115162883Y-106149501D01*
X115162881Y-106149500D01*
X115162873Y-106149500D01*
X115162864Y-106149500D01*
X113367129Y-106149500D01*
X113367123Y-106149501D01*
X113307516Y-106155908D01*
X113172671Y-106206202D01*
X113172669Y-106206203D01*
X113069311Y-106283578D01*
X113003847Y-106307995D01*
X112935574Y-106293144D01*
X112920689Y-106283578D01*
X112906418Y-106272895D01*
X112817331Y-106206204D01*
X112817330Y-106206203D01*
X112817328Y-106206202D01*
X112682482Y-106155908D01*
X112682483Y-106155908D01*
X112622883Y-106149501D01*
X112622881Y-106149500D01*
X112622873Y-106149500D01*
X112622864Y-106149500D01*
X110827129Y-106149500D01*
X110827123Y-106149501D01*
X110767516Y-106155908D01*
X110632671Y-106206202D01*
X110632664Y-106206206D01*
X110517455Y-106292452D01*
X110517452Y-106292455D01*
X110431206Y-106407664D01*
X110431202Y-106407671D01*
X110380908Y-106542517D01*
X110374501Y-106602116D01*
X110374501Y-106602123D01*
X110374500Y-106602135D01*
X106415500Y-106602135D01*
X106415500Y-100252135D01*
X108804500Y-100252135D01*
X108804500Y-102047870D01*
X108804501Y-102047876D01*
X108810908Y-102107483D01*
X108861202Y-102242328D01*
X108861206Y-102242335D01*
X108947452Y-102357544D01*
X108947455Y-102357547D01*
X109062664Y-102443793D01*
X109062671Y-102443797D01*
X109197517Y-102494091D01*
X109197516Y-102494091D01*
X109204444Y-102494835D01*
X109257127Y-102500500D01*
X112852872Y-102500499D01*
X112912483Y-102494091D01*
X113047331Y-102443796D01*
X113162546Y-102357546D01*
X113248796Y-102242331D01*
X113299091Y-102107483D01*
X113305500Y-102047873D01*
X113305499Y-100252128D01*
X113299091Y-100192517D01*
X113248796Y-100057669D01*
X113248795Y-100057668D01*
X113248793Y-100057664D01*
X113162547Y-99942455D01*
X113162544Y-99942452D01*
X113047335Y-99856206D01*
X113047328Y-99856202D01*
X112912482Y-99805908D01*
X112912483Y-99805908D01*
X112852883Y-99799501D01*
X112852881Y-99799500D01*
X112852873Y-99799500D01*
X112852864Y-99799500D01*
X109257129Y-99799500D01*
X109257123Y-99799501D01*
X109197516Y-99805908D01*
X109062671Y-99856202D01*
X109062664Y-99856206D01*
X108947455Y-99942452D01*
X108947452Y-99942455D01*
X108861206Y-100057664D01*
X108861202Y-100057671D01*
X108810908Y-100192517D01*
X108804501Y-100252116D01*
X108804501Y-100252123D01*
X108804500Y-100252135D01*
X106415500Y-100252135D01*
X106415500Y-95172135D01*
X108804500Y-95172135D01*
X108804500Y-96967870D01*
X108804501Y-96967876D01*
X108810908Y-97027483D01*
X108861202Y-97162328D01*
X108861206Y-97162335D01*
X108947452Y-97277544D01*
X108947455Y-97277547D01*
X109062664Y-97363793D01*
X109062671Y-97363797D01*
X109197517Y-97414091D01*
X109197516Y-97414091D01*
X109204444Y-97414835D01*
X109257127Y-97420500D01*
X112852872Y-97420499D01*
X112912483Y-97414091D01*
X113047331Y-97363796D01*
X113162546Y-97277546D01*
X113248796Y-97162331D01*
X113299091Y-97027483D01*
X113305500Y-96967873D01*
X113305499Y-95172128D01*
X113299091Y-95112517D01*
X113248796Y-94977669D01*
X113248795Y-94977668D01*
X113248793Y-94977664D01*
X113162547Y-94862455D01*
X113162544Y-94862452D01*
X113047335Y-94776206D01*
X113047328Y-94776202D01*
X112912482Y-94725908D01*
X112912483Y-94725908D01*
X112852883Y-94719501D01*
X112852881Y-94719500D01*
X112852873Y-94719500D01*
X112852864Y-94719500D01*
X109257129Y-94719500D01*
X109257123Y-94719501D01*
X109197516Y-94725908D01*
X109062671Y-94776202D01*
X109062664Y-94776206D01*
X108947455Y-94862452D01*
X108947452Y-94862455D01*
X108861206Y-94977664D01*
X108861202Y-94977671D01*
X108810908Y-95112517D01*
X108804501Y-95172116D01*
X108804501Y-95172123D01*
X108804500Y-95172135D01*
X106415500Y-95172135D01*
X106415500Y-82779054D01*
X107599498Y-82779054D01*
X107640423Y-82931785D01*
X107669358Y-82981900D01*
X107669359Y-82981904D01*
X107669360Y-82981904D01*
X107719479Y-83068714D01*
X107719481Y-83068717D01*
X107838349Y-83187585D01*
X107838355Y-83187590D01*
X110852310Y-86201545D01*
X110885795Y-86262868D01*
X110880811Y-86332560D01*
X110852427Y-86376790D01*
X110524570Y-86705523D01*
X110523154Y-86706752D01*
X110517455Y-86712452D01*
X110513806Y-86717326D01*
X110508858Y-86723511D01*
X110471353Y-86767442D01*
X110471348Y-86767449D01*
X110469240Y-86770344D01*
X110469230Y-86770359D01*
X110460517Y-86786366D01*
X110450878Y-86801386D01*
X110431206Y-86827664D01*
X110431201Y-86827673D01*
X110419400Y-86859312D01*
X110412137Y-86875246D01*
X110406200Y-86886155D01*
X110406197Y-86886163D01*
X110402963Y-86900295D01*
X110398272Y-86915960D01*
X110380908Y-86962518D01*
X110374357Y-87023447D01*
X110373379Y-87035342D01*
X110371835Y-87089393D01*
X110371835Y-87089397D01*
X110372759Y-87094851D01*
X110374500Y-87115558D01*
X110374500Y-90617870D01*
X110374501Y-90617876D01*
X110380908Y-90677483D01*
X110431202Y-90812328D01*
X110431206Y-90812335D01*
X110517452Y-90927544D01*
X110517455Y-90927547D01*
X110632664Y-91013793D01*
X110632671Y-91013797D01*
X110767517Y-91064091D01*
X110767516Y-91064091D01*
X110774444Y-91064835D01*
X110827127Y-91070500D01*
X112622872Y-91070499D01*
X112682483Y-91064091D01*
X112817331Y-91013796D01*
X112920690Y-90936421D01*
X112986152Y-90912004D01*
X113054425Y-90926855D01*
X113069303Y-90936416D01*
X113172665Y-91013793D01*
X113172668Y-91013795D01*
X113172671Y-91013797D01*
X113307517Y-91064091D01*
X113307516Y-91064091D01*
X113314444Y-91064835D01*
X113367127Y-91070500D01*
X115162872Y-91070499D01*
X115222483Y-91064091D01*
X115357331Y-91013796D01*
X115472546Y-90927546D01*
X115558796Y-90812331D01*
X115609091Y-90677483D01*
X115615500Y-90617873D01*
X115615499Y-87097617D01*
X115615810Y-87088837D01*
X115615813Y-87088802D01*
X115618502Y-87050918D01*
X115617671Y-87046536D01*
X115615687Y-87025435D01*
X115615676Y-87025436D01*
X115615660Y-87025150D01*
X115615499Y-87023430D01*
X115615499Y-87022129D01*
X115615498Y-87022123D01*
X115615497Y-87022116D01*
X115609091Y-86962517D01*
X115597799Y-86932243D01*
X115592152Y-86912007D01*
X115591688Y-86909558D01*
X115588784Y-86901087D01*
X115568517Y-86850903D01*
X115568511Y-86850893D01*
X115568438Y-86850754D01*
X115562130Y-86836608D01*
X115558797Y-86827673D01*
X115558796Y-86827669D01*
X115516862Y-86771652D01*
X115512431Y-86765330D01*
X115489647Y-86730569D01*
X115489646Y-86730568D01*
X115489645Y-86730566D01*
X114896520Y-86058357D01*
X114866926Y-85995065D01*
X114865500Y-85976316D01*
X114865500Y-81425945D01*
X114865500Y-81425943D01*
X114848607Y-81362898D01*
X114824577Y-81273215D01*
X114770215Y-81179058D01*
X114745520Y-81136284D01*
X114633716Y-81024480D01*
X114633715Y-81024479D01*
X114629385Y-81020149D01*
X114629374Y-81020139D01*
X111405179Y-77795944D01*
X111376032Y-77749824D01*
X111013668Y-76731228D01*
X111011234Y-76723614D01*
X111010182Y-76719913D01*
X111010178Y-76719904D01*
X111004506Y-76708514D01*
X111002953Y-76705280D01*
X110980761Y-76657238D01*
X110980758Y-76657235D01*
X110980757Y-76657231D01*
X110977451Y-76651678D01*
X110977536Y-76651627D01*
X110970425Y-76640072D01*
X110912251Y-76523241D01*
X110881381Y-76482362D01*
X110779846Y-76347909D01*
X110617485Y-76199898D01*
X110617484Y-76199897D01*
X110430687Y-76084237D01*
X110430685Y-76084236D01*
X110225818Y-76004871D01*
X110221894Y-76004137D01*
X110219503Y-76003690D01*
X110157225Y-75972021D01*
X110121954Y-75911707D01*
X110124890Y-75841899D01*
X110165101Y-75784760D01*
X110201279Y-75764782D01*
X110317667Y-75723994D01*
X110331197Y-75719035D01*
X110331790Y-75718808D01*
X110392529Y-75690803D01*
X110399635Y-75687791D01*
X110430687Y-75675763D01*
X110617484Y-75560103D01*
X110779848Y-75412088D01*
X110912251Y-75236759D01*
X111010182Y-75040087D01*
X111070307Y-74828768D01*
X111090579Y-74610000D01*
X111070307Y-74391232D01*
X111010182Y-74179913D01*
X110912251Y-73983241D01*
X110779848Y-73807912D01*
X110779846Y-73807909D01*
X110617485Y-73659898D01*
X110617484Y-73659897D01*
X110430687Y-73544237D01*
X110430685Y-73544236D01*
X110225820Y-73464872D01*
X110225819Y-73464871D01*
X110225817Y-73464871D01*
X110209858Y-73461887D01*
X110147580Y-73430221D01*
X110112307Y-73369909D01*
X110115241Y-73300101D01*
X110155449Y-73242960D01*
X110209858Y-73218112D01*
X110225817Y-73215129D01*
X110280892Y-73193793D01*
X110354726Y-73165190D01*
X110362199Y-73162566D01*
X110392377Y-73153049D01*
X110414098Y-73142600D01*
X110423056Y-73138719D01*
X110430684Y-73135764D01*
X110430683Y-73135764D01*
X110430687Y-73135763D01*
X110433342Y-73134118D01*
X110444861Y-73127804D01*
X111370166Y-72682754D01*
X111423913Y-72670500D01*
X112459903Y-72670500D01*
X112526942Y-72690185D01*
X112547584Y-72706819D01*
X124371335Y-84530571D01*
X124404820Y-84591894D01*
X124399836Y-84661586D01*
X124357964Y-84717519D01*
X124297538Y-84741472D01*
X124180749Y-84754630D01*
X124180745Y-84754631D01*
X124010476Y-84814211D01*
X123857737Y-84910184D01*
X123730184Y-85037737D01*
X123634211Y-85190476D01*
X123574631Y-85360745D01*
X123574630Y-85360750D01*
X123554435Y-85539996D01*
X123554435Y-85540003D01*
X123574630Y-85719249D01*
X123574631Y-85719254D01*
X123634211Y-85889523D01*
X123713093Y-86015063D01*
X123732093Y-86082300D01*
X123711725Y-86149135D01*
X123701079Y-86163076D01*
X123242792Y-86682468D01*
X123183677Y-86719713D01*
X123113810Y-86719086D01*
X123075501Y-86699694D01*
X123052490Y-86682468D01*
X122977331Y-86626204D01*
X122977329Y-86626203D01*
X122977328Y-86626202D01*
X122842482Y-86575908D01*
X122842483Y-86575908D01*
X122782883Y-86569501D01*
X122782881Y-86569500D01*
X122782873Y-86569500D01*
X122782864Y-86569500D01*
X120987129Y-86569500D01*
X120987123Y-86569501D01*
X120927516Y-86575908D01*
X120792671Y-86626202D01*
X120792669Y-86626203D01*
X120689311Y-86703578D01*
X120623847Y-86727995D01*
X120555574Y-86713144D01*
X120540689Y-86703578D01*
X120437330Y-86626203D01*
X120437328Y-86626202D01*
X120302482Y-86575908D01*
X120302483Y-86575908D01*
X120242883Y-86569501D01*
X120242881Y-86569500D01*
X120242873Y-86569500D01*
X120242864Y-86569500D01*
X118447129Y-86569500D01*
X118447123Y-86569501D01*
X118387516Y-86575908D01*
X118252671Y-86626202D01*
X118252664Y-86626206D01*
X118137455Y-86712452D01*
X118137452Y-86712455D01*
X118051206Y-86827664D01*
X118051202Y-86827671D01*
X118000908Y-86962517D01*
X117994697Y-87020293D01*
X117994501Y-87022123D01*
X117994500Y-87022135D01*
X117994500Y-90617870D01*
X117994501Y-90617876D01*
X118000908Y-90677483D01*
X118051202Y-90812328D01*
X118051206Y-90812335D01*
X118137452Y-90927544D01*
X118137455Y-90927547D01*
X118252664Y-91013793D01*
X118252671Y-91013797D01*
X118387517Y-91064091D01*
X118387516Y-91064091D01*
X118394444Y-91064835D01*
X118447127Y-91070500D01*
X120242872Y-91070499D01*
X120302483Y-91064091D01*
X120437331Y-91013796D01*
X120540690Y-90936421D01*
X120606152Y-90912004D01*
X120674425Y-90926855D01*
X120689303Y-90936416D01*
X120792665Y-91013793D01*
X120792668Y-91013795D01*
X120792671Y-91013797D01*
X120927517Y-91064091D01*
X120927516Y-91064091D01*
X120934444Y-91064835D01*
X120987127Y-91070500D01*
X122782872Y-91070499D01*
X122842483Y-91064091D01*
X122977331Y-91013796D01*
X123080690Y-90936421D01*
X123146152Y-90912004D01*
X123214425Y-90926855D01*
X123229303Y-90936416D01*
X123332665Y-91013793D01*
X123332668Y-91013795D01*
X123332671Y-91013797D01*
X123467517Y-91064091D01*
X123467516Y-91064091D01*
X123474444Y-91064835D01*
X123527127Y-91070500D01*
X125322872Y-91070499D01*
X125382483Y-91064091D01*
X125517331Y-91013796D01*
X125620690Y-90936421D01*
X125686152Y-90912004D01*
X125754425Y-90926855D01*
X125769303Y-90936416D01*
X125872665Y-91013793D01*
X125872668Y-91013795D01*
X125872671Y-91013797D01*
X126007517Y-91064091D01*
X126007516Y-91064091D01*
X126014444Y-91064835D01*
X126067127Y-91070500D01*
X127862872Y-91070499D01*
X127922483Y-91064091D01*
X128057331Y-91013796D01*
X128172546Y-90927546D01*
X128258796Y-90812331D01*
X128309091Y-90677483D01*
X128315500Y-90617873D01*
X128315499Y-87022128D01*
X128309091Y-86962517D01*
X128294119Y-86922376D01*
X128258797Y-86827671D01*
X128258793Y-86827664D01*
X128177511Y-86719086D01*
X128172546Y-86712454D01*
X128102436Y-86659969D01*
X128083293Y-86642202D01*
X127868833Y-86396265D01*
X127461178Y-85928776D01*
X127447249Y-85909279D01*
X127445520Y-85906284D01*
X127417613Y-85878377D01*
X127411835Y-85872191D01*
X127386044Y-85842614D01*
X127374320Y-85829630D01*
X127373781Y-85829053D01*
X127373780Y-85829052D01*
X127321700Y-85780661D01*
X127321695Y-85780658D01*
X127321678Y-85780645D01*
X127308257Y-85769021D01*
X113247590Y-71708355D01*
X113247588Y-71708352D01*
X113128717Y-71589481D01*
X113128716Y-71589480D01*
X113041904Y-71539360D01*
X113041904Y-71539359D01*
X113041900Y-71539358D01*
X112991785Y-71510423D01*
X112839057Y-71469499D01*
X112680943Y-71469499D01*
X112673347Y-71469499D01*
X112673331Y-71469500D01*
X111423915Y-71469500D01*
X111370167Y-71457246D01*
X110444862Y-71012193D01*
X110433343Y-71005880D01*
X110430696Y-71004241D01*
X110430684Y-71004235D01*
X110423056Y-71001280D01*
X110414108Y-70997402D01*
X110392369Y-70986946D01*
X110392354Y-70986939D01*
X110379165Y-70980828D01*
X110378609Y-70980580D01*
X110378607Y-70980579D01*
X110378595Y-70980574D01*
X110315759Y-70957405D01*
X110309467Y-70955808D01*
X110309601Y-70955276D01*
X110293139Y-70950951D01*
X110225822Y-70924872D01*
X110225817Y-70924871D01*
X110209858Y-70921887D01*
X110147580Y-70890221D01*
X110112307Y-70829909D01*
X110115241Y-70760101D01*
X110155449Y-70702960D01*
X110209858Y-70678112D01*
X110225817Y-70675129D01*
X110430687Y-70595763D01*
X110617484Y-70480103D01*
X110779848Y-70332088D01*
X110912251Y-70156759D01*
X111010182Y-69960087D01*
X111070307Y-69748768D01*
X111090579Y-69530000D01*
X111070307Y-69311232D01*
X111010182Y-69099913D01*
X110912251Y-68903241D01*
X110779848Y-68727912D01*
X110779846Y-68727909D01*
X110617485Y-68579898D01*
X110617484Y-68579897D01*
X110430687Y-68464237D01*
X110430685Y-68464236D01*
X110225820Y-68384872D01*
X110225819Y-68384871D01*
X110225817Y-68384871D01*
X110209858Y-68381887D01*
X110147580Y-68350221D01*
X110112307Y-68289909D01*
X110115241Y-68220101D01*
X110155449Y-68162960D01*
X110209858Y-68138112D01*
X110225817Y-68135129D01*
X110280322Y-68114013D01*
X110354726Y-68085190D01*
X110362199Y-68082566D01*
X110392377Y-68073049D01*
X110414098Y-68062600D01*
X110423056Y-68058719D01*
X110430684Y-68055764D01*
X110430683Y-68055764D01*
X110430687Y-68055763D01*
X110433342Y-68054118D01*
X110444861Y-68047804D01*
X111370166Y-67602754D01*
X111423913Y-67590500D01*
X113099903Y-67590500D01*
X113166942Y-67610185D01*
X113187584Y-67626819D01*
X131408181Y-85847416D01*
X131441666Y-85908739D01*
X131444500Y-85935097D01*
X131444500Y-85976315D01*
X131424815Y-86043354D01*
X131413480Y-86058356D01*
X130820350Y-86730570D01*
X130820336Y-86730586D01*
X130781842Y-86780096D01*
X130781829Y-86780114D01*
X130780207Y-86782490D01*
X130780206Y-86782492D01*
X130773494Y-86795277D01*
X130762977Y-86811940D01*
X130751205Y-86827666D01*
X130751203Y-86827669D01*
X130740958Y-86855136D01*
X130734576Y-86869420D01*
X130726111Y-86885548D01*
X130726108Y-86885556D01*
X130722356Y-86901935D01*
X130717672Y-86917569D01*
X130700908Y-86962518D01*
X130694697Y-87020293D01*
X130693990Y-87025685D01*
X130693244Y-87034713D01*
X130691682Y-87088799D01*
X130691683Y-87088802D01*
X130691683Y-87088803D01*
X130692706Y-87094851D01*
X130692765Y-87095202D01*
X130694500Y-87115872D01*
X130694500Y-90617870D01*
X130694501Y-90617876D01*
X130700908Y-90677483D01*
X130751202Y-90812328D01*
X130751206Y-90812335D01*
X130837452Y-90927544D01*
X130837455Y-90927547D01*
X130952664Y-91013793D01*
X130952671Y-91013797D01*
X131087517Y-91064091D01*
X131087516Y-91064091D01*
X131094444Y-91064835D01*
X131147127Y-91070500D01*
X132942872Y-91070499D01*
X133002483Y-91064091D01*
X133137331Y-91013796D01*
X133240690Y-90936421D01*
X133306152Y-90912004D01*
X133374425Y-90926855D01*
X133389303Y-90936416D01*
X133492665Y-91013793D01*
X133492668Y-91013795D01*
X133492671Y-91013797D01*
X133627517Y-91064091D01*
X133627516Y-91064091D01*
X133634444Y-91064835D01*
X133687127Y-91070500D01*
X135482872Y-91070499D01*
X135542483Y-91064091D01*
X135677331Y-91013796D01*
X135780690Y-90936421D01*
X135846152Y-90912004D01*
X135914425Y-90926855D01*
X135929303Y-90936416D01*
X136032665Y-91013793D01*
X136032668Y-91013795D01*
X136032671Y-91013797D01*
X136167517Y-91064091D01*
X136167516Y-91064091D01*
X136174444Y-91064835D01*
X136227127Y-91070500D01*
X138022872Y-91070499D01*
X138082483Y-91064091D01*
X138217331Y-91013796D01*
X138320690Y-90936421D01*
X138386152Y-90912004D01*
X138454425Y-90926855D01*
X138469303Y-90936416D01*
X138572665Y-91013793D01*
X138572668Y-91013795D01*
X138572671Y-91013797D01*
X138707517Y-91064091D01*
X138707516Y-91064091D01*
X138714444Y-91064835D01*
X138767127Y-91070500D01*
X140562872Y-91070499D01*
X140622483Y-91064091D01*
X140757331Y-91013796D01*
X140872546Y-90927546D01*
X140958796Y-90812331D01*
X141009091Y-90677483D01*
X141015500Y-90617873D01*
X141015499Y-87088799D01*
X143391682Y-87088799D01*
X143391683Y-87088802D01*
X143391683Y-87088803D01*
X143392706Y-87094851D01*
X143392765Y-87095202D01*
X143394500Y-87115872D01*
X143394500Y-90617870D01*
X143394501Y-90617876D01*
X143400908Y-90677483D01*
X143451202Y-90812328D01*
X143451206Y-90812335D01*
X143537452Y-90927544D01*
X143537455Y-90927547D01*
X143652664Y-91013793D01*
X143652671Y-91013797D01*
X143787517Y-91064091D01*
X143787516Y-91064091D01*
X143794444Y-91064835D01*
X143847127Y-91070500D01*
X145642872Y-91070499D01*
X145702483Y-91064091D01*
X145837331Y-91013796D01*
X145940690Y-90936421D01*
X146006152Y-90912004D01*
X146074425Y-90926855D01*
X146089303Y-90936416D01*
X146192665Y-91013793D01*
X146192668Y-91013795D01*
X146192671Y-91013797D01*
X146327517Y-91064091D01*
X146327516Y-91064091D01*
X146334444Y-91064835D01*
X146387127Y-91070500D01*
X148182872Y-91070499D01*
X148242483Y-91064091D01*
X148377331Y-91013796D01*
X148480690Y-90936421D01*
X148546152Y-90912004D01*
X148614425Y-90926855D01*
X148629303Y-90936416D01*
X148732665Y-91013793D01*
X148732668Y-91013795D01*
X148732671Y-91013797D01*
X148867517Y-91064091D01*
X148867516Y-91064091D01*
X148874444Y-91064835D01*
X148927127Y-91070500D01*
X150722872Y-91070499D01*
X150782483Y-91064091D01*
X150917331Y-91013796D01*
X151020690Y-90936421D01*
X151086152Y-90912004D01*
X151154425Y-90926855D01*
X151169303Y-90936416D01*
X151272665Y-91013793D01*
X151272668Y-91013795D01*
X151272671Y-91013797D01*
X151407517Y-91064091D01*
X151407516Y-91064091D01*
X151414444Y-91064835D01*
X151467127Y-91070500D01*
X153262872Y-91070499D01*
X153322483Y-91064091D01*
X153457331Y-91013796D01*
X153572546Y-90927546D01*
X153658796Y-90812331D01*
X153709091Y-90677483D01*
X153715500Y-90617873D01*
X153715499Y-87097617D01*
X153715810Y-87088837D01*
X153715813Y-87088802D01*
X153718502Y-87050918D01*
X153717671Y-87046536D01*
X153715687Y-87025435D01*
X153715676Y-87025436D01*
X153715660Y-87025150D01*
X153715499Y-87023430D01*
X153715499Y-87022129D01*
X153715498Y-87022123D01*
X153715497Y-87022116D01*
X153709091Y-86962517D01*
X153697799Y-86932243D01*
X153692152Y-86912007D01*
X153691688Y-86909558D01*
X153688784Y-86901087D01*
X153668517Y-86850903D01*
X153668511Y-86850893D01*
X153668438Y-86850754D01*
X153662130Y-86836608D01*
X153658797Y-86827673D01*
X153658796Y-86827669D01*
X153616862Y-86771652D01*
X153612431Y-86765330D01*
X153589647Y-86730569D01*
X153589646Y-86730568D01*
X153589645Y-86730566D01*
X152996520Y-86058357D01*
X152966926Y-85995065D01*
X152965500Y-85976316D01*
X152965500Y-83785097D01*
X152985185Y-83718058D01*
X153001819Y-83697416D01*
X153293297Y-83405938D01*
X153594051Y-83105183D01*
X153655372Y-83071700D01*
X153725063Y-83076684D01*
X153736173Y-83081458D01*
X154143266Y-83280446D01*
X154779762Y-83591567D01*
X154779804Y-83591587D01*
X154779827Y-83591598D01*
X154793282Y-83597931D01*
X154793929Y-83598224D01*
X154793932Y-83598225D01*
X154793934Y-83598226D01*
X154836208Y-83613946D01*
X154845385Y-83617784D01*
X154870670Y-83629575D01*
X155082023Y-83686207D01*
X155269787Y-83702633D01*
X155299998Y-83705277D01*
X155300000Y-83705277D01*
X155300002Y-83705277D01*
X155328254Y-83702805D01*
X155517977Y-83686207D01*
X155729330Y-83629575D01*
X155927639Y-83537102D01*
X156106877Y-83411598D01*
X156261598Y-83256877D01*
X156387102Y-83077639D01*
X156479575Y-82879330D01*
X156536207Y-82667977D01*
X156555277Y-82450000D01*
X156536207Y-82232023D01*
X156479575Y-82020670D01*
X156387102Y-81822362D01*
X156387100Y-81822359D01*
X156387099Y-81822357D01*
X156269598Y-81654548D01*
X156247271Y-81588342D01*
X156264281Y-81520575D01*
X156283493Y-81495743D01*
X156320722Y-81458514D01*
X156320729Y-81458504D01*
X157030520Y-80748716D01*
X157109577Y-80611784D01*
X157150501Y-80459057D01*
X157150501Y-80300942D01*
X157150501Y-80293347D01*
X157150500Y-80293329D01*
X157150500Y-78429060D01*
X157150501Y-78429047D01*
X157150501Y-78260944D01*
X157146902Y-78247512D01*
X157109577Y-78108216D01*
X157065105Y-78031187D01*
X157030524Y-77971290D01*
X157030518Y-77971282D01*
X156915477Y-77856241D01*
X156885880Y-77808831D01*
X156504737Y-76698798D01*
X156502247Y-76690644D01*
X156499575Y-76680670D01*
X156498026Y-76677348D01*
X156493759Y-76667003D01*
X156489810Y-76656053D01*
X156489802Y-76656033D01*
X156489792Y-76656004D01*
X156489541Y-76655340D01*
X156489539Y-76655337D01*
X156489537Y-76655330D01*
X156489532Y-76655320D01*
X156460673Y-76592390D01*
X156457321Y-76586743D01*
X156457538Y-76586613D01*
X156449250Y-76572748D01*
X156446114Y-76566025D01*
X156407102Y-76482362D01*
X156407099Y-76482358D01*
X156407099Y-76482357D01*
X156281599Y-76303124D01*
X156209418Y-76230943D01*
X156126877Y-76148402D01*
X155947639Y-76022898D01*
X155947640Y-76022898D01*
X155947638Y-76022897D01*
X155822404Y-75964500D01*
X155749330Y-75930425D01*
X155749327Y-75930424D01*
X155749325Y-75930423D01*
X155612025Y-75893634D01*
X155552365Y-75857269D01*
X155521836Y-75794422D01*
X155530131Y-75725046D01*
X155574616Y-75671168D01*
X155605056Y-75656172D01*
X155725795Y-75616100D01*
X155732729Y-75614022D01*
X155749330Y-75609575D01*
X155754113Y-75607343D01*
X155765440Y-75602727D01*
X155766156Y-75602475D01*
X155770915Y-75600804D01*
X155770935Y-75600796D01*
X155770948Y-75600792D01*
X155771661Y-75600528D01*
X155771674Y-75600522D01*
X155771694Y-75600515D01*
X155837569Y-75570550D01*
X155837571Y-75570548D01*
X155843291Y-75567165D01*
X155843448Y-75567431D01*
X155856688Y-75559512D01*
X155947639Y-75517102D01*
X156126877Y-75391598D01*
X156281598Y-75236877D01*
X156407102Y-75057639D01*
X156499575Y-74859330D01*
X156556207Y-74647977D01*
X156575277Y-74430000D01*
X156556207Y-74212023D01*
X156499575Y-74000670D01*
X156407102Y-73802362D01*
X156407100Y-73802359D01*
X156407099Y-73802357D01*
X156281599Y-73623124D01*
X156281596Y-73623121D01*
X156126877Y-73468402D01*
X155947639Y-73342898D01*
X155947640Y-73342898D01*
X155947638Y-73342897D01*
X155848484Y-73296661D01*
X155749330Y-73250425D01*
X155749326Y-73250424D01*
X155749322Y-73250422D01*
X155537977Y-73193793D01*
X155320002Y-73174723D01*
X155319998Y-73174723D01*
X155174682Y-73187436D01*
X155102023Y-73193793D01*
X155102020Y-73193793D01*
X154890677Y-73250422D01*
X154890668Y-73250426D01*
X154692361Y-73342898D01*
X154692357Y-73342900D01*
X154513121Y-73468402D01*
X154358402Y-73623121D01*
X154232898Y-73802360D01*
X154232897Y-73802362D01*
X154154750Y-73969948D01*
X154152238Y-73975028D01*
X154146306Y-73986364D01*
X154145849Y-73987661D01*
X154141307Y-73998778D01*
X154140426Y-74000667D01*
X154139042Y-74005830D01*
X154136203Y-74014987D01*
X153747602Y-75116000D01*
X153718352Y-75162411D01*
X144376286Y-84504478D01*
X144264481Y-84616282D01*
X144264479Y-84616285D01*
X144214361Y-84703094D01*
X144214359Y-84703096D01*
X144185425Y-84753209D01*
X144185424Y-84753210D01*
X144176946Y-84784850D01*
X144144499Y-84905943D01*
X144144499Y-84905945D01*
X144144499Y-85074046D01*
X144144500Y-85074059D01*
X144144500Y-85976315D01*
X144124815Y-86043354D01*
X144113480Y-86058356D01*
X143520350Y-86730570D01*
X143520336Y-86730586D01*
X143481842Y-86780096D01*
X143481829Y-86780114D01*
X143480207Y-86782490D01*
X143480206Y-86782492D01*
X143473494Y-86795277D01*
X143462977Y-86811940D01*
X143451205Y-86827666D01*
X143451203Y-86827669D01*
X143440958Y-86855136D01*
X143434576Y-86869420D01*
X143426111Y-86885548D01*
X143426108Y-86885556D01*
X143422356Y-86901935D01*
X143417672Y-86917569D01*
X143400908Y-86962518D01*
X143394697Y-87020293D01*
X143393990Y-87025685D01*
X143393244Y-87034713D01*
X143391682Y-87088799D01*
X141015499Y-87088799D01*
X141015499Y-87022128D01*
X141009091Y-86962517D01*
X140994119Y-86922376D01*
X140958797Y-86827671D01*
X140958793Y-86827664D01*
X140872547Y-86712455D01*
X140872544Y-86712452D01*
X140757335Y-86626206D01*
X140757328Y-86626202D01*
X140622482Y-86575908D01*
X140622483Y-86575908D01*
X140562883Y-86569501D01*
X140562881Y-86569500D01*
X140562873Y-86569500D01*
X140562864Y-86569500D01*
X138767129Y-86569500D01*
X138767123Y-86569501D01*
X138707516Y-86575908D01*
X138572671Y-86626202D01*
X138572669Y-86626203D01*
X138469311Y-86703578D01*
X138403847Y-86727995D01*
X138335574Y-86713144D01*
X138320689Y-86703578D01*
X138217330Y-86626203D01*
X138217328Y-86626202D01*
X138082482Y-86575908D01*
X138082483Y-86575908D01*
X138022883Y-86569501D01*
X138022881Y-86569500D01*
X138022873Y-86569500D01*
X138022864Y-86569500D01*
X136227129Y-86569500D01*
X136227123Y-86569501D01*
X136167516Y-86575908D01*
X136032671Y-86626202D01*
X136032669Y-86626203D01*
X135929311Y-86703578D01*
X135863847Y-86727995D01*
X135795574Y-86713144D01*
X135780689Y-86703578D01*
X135677330Y-86626203D01*
X135677328Y-86626202D01*
X135542482Y-86575908D01*
X135542483Y-86575908D01*
X135482883Y-86569501D01*
X135482881Y-86569500D01*
X135482873Y-86569500D01*
X135482864Y-86569500D01*
X133687129Y-86569500D01*
X133687123Y-86569501D01*
X133627516Y-86575908D01*
X133492671Y-86626202D01*
X133492668Y-86626204D01*
X133394497Y-86699695D01*
X133329032Y-86724112D01*
X133260759Y-86709260D01*
X133227207Y-86682470D01*
X132676520Y-86058357D01*
X132646926Y-85995065D01*
X132645500Y-85976316D01*
X132645500Y-85724059D01*
X132645501Y-85724046D01*
X132645501Y-85555945D01*
X132645501Y-85555943D01*
X132604577Y-85403215D01*
X132575639Y-85353095D01*
X132525520Y-85266284D01*
X132413716Y-85154480D01*
X132413715Y-85154479D01*
X132409385Y-85150149D01*
X132409374Y-85150139D01*
X113887590Y-66628355D01*
X113887588Y-66628352D01*
X113768717Y-66509481D01*
X113768716Y-66509480D01*
X113681904Y-66459360D01*
X113681904Y-66459359D01*
X113681900Y-66459358D01*
X113631785Y-66430423D01*
X113479057Y-66389499D01*
X113320943Y-66389499D01*
X113313347Y-66389499D01*
X113313331Y-66389500D01*
X111423915Y-66389500D01*
X111370167Y-66377246D01*
X110444862Y-65932193D01*
X110433343Y-65925880D01*
X110430696Y-65924241D01*
X110430684Y-65924235D01*
X110423056Y-65921280D01*
X110414108Y-65917402D01*
X110392369Y-65906946D01*
X110392354Y-65906939D01*
X110379165Y-65900828D01*
X110378609Y-65900580D01*
X110378607Y-65900579D01*
X110378595Y-65900574D01*
X110315759Y-65877405D01*
X110309467Y-65875808D01*
X110309601Y-65875276D01*
X110293139Y-65870951D01*
X110225821Y-65844872D01*
X110225818Y-65844871D01*
X110225817Y-65844871D01*
X110009853Y-65804500D01*
X109790147Y-65804500D01*
X109574183Y-65844871D01*
X109574180Y-65844871D01*
X109574180Y-65844872D01*
X109369314Y-65924236D01*
X109369312Y-65924237D01*
X109182514Y-66039898D01*
X109020153Y-66187909D01*
X108887749Y-66363240D01*
X108789819Y-66559909D01*
X108729692Y-66771236D01*
X108709421Y-66989999D01*
X108709421Y-66990000D01*
X108729692Y-67208763D01*
X108789819Y-67420090D01*
X108887749Y-67616759D01*
X109020153Y-67792090D01*
X109159830Y-67919422D01*
X109182516Y-67940103D01*
X109369313Y-68055763D01*
X109574183Y-68135129D01*
X109590141Y-68138112D01*
X109652419Y-68169780D01*
X109687692Y-68230092D01*
X109684758Y-68299900D01*
X109644549Y-68357040D01*
X109590141Y-68381887D01*
X109574183Y-68384871D01*
X109574181Y-68384871D01*
X109574179Y-68384872D01*
X109369314Y-68464236D01*
X109369312Y-68464237D01*
X109182514Y-68579898D01*
X109020153Y-68727909D01*
X108887749Y-68903240D01*
X108789819Y-69099909D01*
X108729692Y-69311236D01*
X108709421Y-69529999D01*
X108709421Y-69530000D01*
X108729692Y-69748763D01*
X108789819Y-69960090D01*
X108887749Y-70156759D01*
X109020153Y-70332090D01*
X109159830Y-70459422D01*
X109182516Y-70480103D01*
X109369313Y-70595763D01*
X109574183Y-70675129D01*
X109590141Y-70678112D01*
X109652419Y-70709780D01*
X109687692Y-70770092D01*
X109684758Y-70839900D01*
X109644549Y-70897040D01*
X109590141Y-70921887D01*
X109574183Y-70924871D01*
X109574181Y-70924871D01*
X109574179Y-70924872D01*
X109369314Y-71004236D01*
X109369312Y-71004237D01*
X109182514Y-71119898D01*
X109020153Y-71267909D01*
X108887749Y-71443240D01*
X108789819Y-71639909D01*
X108729692Y-71851236D01*
X108709421Y-72069999D01*
X108709421Y-72070000D01*
X108729692Y-72288763D01*
X108789819Y-72500090D01*
X108887749Y-72696759D01*
X109020153Y-72872090D01*
X109159830Y-72999422D01*
X109182516Y-73020103D01*
X109369313Y-73135763D01*
X109574183Y-73215129D01*
X109590141Y-73218112D01*
X109652419Y-73249780D01*
X109687692Y-73310092D01*
X109684758Y-73379900D01*
X109644549Y-73437040D01*
X109590141Y-73461887D01*
X109574183Y-73464871D01*
X109574181Y-73464871D01*
X109574179Y-73464872D01*
X109369314Y-73544236D01*
X109369312Y-73544237D01*
X109182514Y-73659898D01*
X109020153Y-73807909D01*
X108887749Y-73983240D01*
X108789817Y-74179913D01*
X108789816Y-74179917D01*
X108788497Y-74184551D01*
X108786258Y-74191608D01*
X108427152Y-75216282D01*
X108397811Y-75262952D01*
X107831286Y-75829478D01*
X107719481Y-75941282D01*
X107719479Y-75941285D01*
X107672362Y-76022896D01*
X107672361Y-76022897D01*
X107640423Y-76078214D01*
X107640423Y-76078215D01*
X107599499Y-76230943D01*
X107599499Y-76230945D01*
X107599499Y-76399046D01*
X107599500Y-76399059D01*
X107599500Y-82613330D01*
X107599499Y-82613348D01*
X107599499Y-82779054D01*
X107599498Y-82779054D01*
X106415500Y-82779054D01*
X106415500Y-61909999D01*
X108709421Y-61909999D01*
X108709421Y-61910000D01*
X108729692Y-62128763D01*
X108789819Y-62340090D01*
X108887749Y-62536759D01*
X109020153Y-62712090D01*
X109159830Y-62839422D01*
X109182516Y-62860103D01*
X109369313Y-62975763D01*
X109574183Y-63055129D01*
X109790147Y-63095500D01*
X109790149Y-63095500D01*
X110009851Y-63095500D01*
X110009853Y-63095500D01*
X110225817Y-63055129D01*
X110430687Y-62975763D01*
X110617484Y-62860103D01*
X110779848Y-62712088D01*
X110912251Y-62536759D01*
X111010182Y-62340087D01*
X111070307Y-62128768D01*
X111090579Y-61910000D01*
X111070307Y-61691232D01*
X111010182Y-61479913D01*
X110912251Y-61283241D01*
X110779848Y-61107912D01*
X110779846Y-61107909D01*
X110617485Y-60959898D01*
X110617484Y-60959897D01*
X110430687Y-60844237D01*
X110430685Y-60844236D01*
X110328252Y-60804554D01*
X110225817Y-60764871D01*
X110009853Y-60724500D01*
X109790147Y-60724500D01*
X109574183Y-60764871D01*
X109574180Y-60764871D01*
X109574180Y-60764872D01*
X109369314Y-60844236D01*
X109369312Y-60844237D01*
X109182514Y-60959898D01*
X109020153Y-61107909D01*
X108887749Y-61283240D01*
X108789819Y-61479909D01*
X108729692Y-61691236D01*
X108709421Y-61909999D01*
X106415500Y-61909999D01*
X106415500Y-55574500D01*
X106435185Y-55507461D01*
X106487989Y-55461706D01*
X106539500Y-55450500D01*
X161320500Y-55450500D01*
X161387539Y-55470185D01*
G37*
%TD.AperFunction*%
%TD*%
%TA.AperFunction,Conductor*%
%TO.N,Net-(Pico1-GPIO20)*%
G36*
X124436260Y-107537851D02*
G01*
X124437542Y-107540578D01*
X125273248Y-110144542D01*
X125272514Y-110153466D01*
X125271762Y-110154727D01*
X124839269Y-110786341D01*
X124837888Y-110788004D01*
X124705126Y-110920766D01*
X124696853Y-110924193D01*
X124688981Y-110921149D01*
X123846083Y-110154556D01*
X123842268Y-110146454D01*
X123842528Y-110143386D01*
X124414976Y-107541637D01*
X124420100Y-107534295D01*
X124428916Y-107532726D01*
X124436260Y-107537851D01*
G37*
%TD.AperFunction*%
%TD*%
%TA.AperFunction,Conductor*%
%TO.N,Net-(Pico1-GPIO20)*%
G36*
X148968369Y-114022415D02*
G01*
X150224873Y-114453975D01*
X150231583Y-114459904D01*
X150232137Y-114468842D01*
X150231886Y-114469505D01*
X149952562Y-115146211D01*
X149946238Y-115152551D01*
X149946211Y-115152562D01*
X149269505Y-115431886D01*
X149260550Y-115431875D01*
X149254226Y-115425535D01*
X149253981Y-115424888D01*
X148822416Y-114168371D01*
X148822970Y-114159435D01*
X148825206Y-114156302D01*
X148956300Y-114025208D01*
X148964572Y-114021782D01*
X148968369Y-114022415D01*
G37*
%TD.AperFunction*%
%TD*%
%TA.AperFunction,Conductor*%
%TO.N,Net-(Pico1-GPIO19)*%
G36*
X121896140Y-107537418D02*
G01*
X121897384Y-107540085D01*
X122733213Y-110144433D01*
X122732479Y-110153357D01*
X122731621Y-110154770D01*
X122278016Y-110795213D01*
X122276741Y-110796724D01*
X122143976Y-110929489D01*
X122135703Y-110932916D01*
X122127761Y-110929807D01*
X121289176Y-110154585D01*
X121285427Y-110146453D01*
X121285706Y-110143415D01*
X121874834Y-107541075D01*
X121880002Y-107533764D01*
X121888827Y-107532249D01*
X121896140Y-107537418D01*
G37*
%TD.AperFunction*%
%TD*%
%TA.AperFunction,Conductor*%
%TO.N,Net-(Pico1-GPIO19)*%
G36*
X141888369Y-114022415D02*
G01*
X143144873Y-114453975D01*
X143151583Y-114459904D01*
X143152137Y-114468842D01*
X143151886Y-114469505D01*
X142872562Y-115146211D01*
X142866238Y-115152551D01*
X142866211Y-115152562D01*
X142189505Y-115431886D01*
X142180550Y-115431875D01*
X142174226Y-115425535D01*
X142173981Y-115424888D01*
X141742416Y-114168371D01*
X141742970Y-114159435D01*
X141745206Y-114156302D01*
X141876300Y-114025208D01*
X141884572Y-114021782D01*
X141888369Y-114022415D01*
G37*
%TD.AperFunction*%
%TD*%
%TA.AperFunction,Conductor*%
%TO.N,Net-(Pico1-GPIO16)*%
G36*
X111736426Y-107538448D02*
G01*
X111737760Y-107541255D01*
X112573297Y-110144696D01*
X112572563Y-110153620D01*
X112571956Y-110154664D01*
X112167605Y-110774501D01*
X112166079Y-110776381D01*
X112033325Y-110909135D01*
X112025052Y-110912562D01*
X112017274Y-110909603D01*
X111168702Y-110154515D01*
X111164800Y-110146455D01*
X111165032Y-110143359D01*
X111715173Y-107542408D01*
X111720238Y-107535024D01*
X111729041Y-107533383D01*
X111736426Y-107538448D01*
G37*
%TD.AperFunction*%
%TD*%
%TA.AperFunction,Conductor*%
%TO.N,Net-(Pico1-GPIO16)*%
G36*
X120658369Y-114007415D02*
G01*
X121914873Y-114438975D01*
X121921583Y-114444904D01*
X121922137Y-114453842D01*
X121921886Y-114454505D01*
X121642562Y-115131211D01*
X121636238Y-115137551D01*
X121636211Y-115137562D01*
X120959505Y-115416886D01*
X120950550Y-115416875D01*
X120944226Y-115410535D01*
X120943981Y-115409888D01*
X120512416Y-114153371D01*
X120512970Y-114144435D01*
X120515206Y-114141302D01*
X120646300Y-114010208D01*
X120654572Y-114006782D01*
X120658369Y-114007415D01*
G37*
%TD.AperFunction*%
%TD*%
%TA.AperFunction,Conductor*%
%TO.N,Net-(Pico1-GPIO18)*%
G36*
X119355404Y-107531966D02*
G01*
X119356141Y-107533746D01*
X120192970Y-110143670D01*
X120192233Y-110152594D01*
X120190602Y-110154983D01*
X119448493Y-110996041D01*
X119440450Y-110999977D01*
X119439720Y-111000000D01*
X119250280Y-111000000D01*
X119242007Y-110996573D01*
X119241507Y-110996041D01*
X118499397Y-110154983D01*
X118496493Y-110146512D01*
X118497028Y-110143674D01*
X119333859Y-107533745D01*
X119339648Y-107526914D01*
X119348572Y-107526177D01*
X119355404Y-107531966D01*
G37*
%TD.AperFunction*%
%TD*%
%TA.AperFunction,Conductor*%
%TO.N,Net-(Pico1-GPIO18)*%
G36*
X134738369Y-114022415D02*
G01*
X135994873Y-114453975D01*
X136001583Y-114459904D01*
X136002137Y-114468842D01*
X136001886Y-114469505D01*
X135722562Y-115146211D01*
X135716238Y-115152551D01*
X135716211Y-115152562D01*
X135039505Y-115431886D01*
X135030550Y-115431875D01*
X135024226Y-115425535D01*
X135023981Y-115424888D01*
X134592416Y-114168371D01*
X134592970Y-114159435D01*
X134595206Y-114156302D01*
X134726300Y-114025208D01*
X134734572Y-114021782D01*
X134738369Y-114022415D01*
G37*
%TD.AperFunction*%
%TD*%
%TA.AperFunction,Conductor*%
%TO.N,Net-(Pico1-GPIO17)*%
G36*
X114277824Y-107543460D02*
G01*
X114279549Y-107546831D01*
X115113736Y-110146063D01*
X115113509Y-110153856D01*
X114905822Y-110691203D01*
X114903182Y-110695258D01*
X114770738Y-110827702D01*
X114762465Y-110831129D01*
X114755377Y-110828737D01*
X113869663Y-110154199D01*
X113865158Y-110146460D01*
X113865182Y-110143150D01*
X114256840Y-107548658D01*
X114261463Y-107540991D01*
X114270155Y-107538837D01*
X114277824Y-107543460D01*
G37*
%TD.AperFunction*%
%TD*%
%TA.AperFunction,Conductor*%
%TO.N,Net-(Pico1-GPIO17)*%
G36*
X127688369Y-114017415D02*
G01*
X128944873Y-114448975D01*
X128951583Y-114454904D01*
X128952137Y-114463842D01*
X128951886Y-114464505D01*
X128672562Y-115141211D01*
X128666238Y-115147551D01*
X128666211Y-115147562D01*
X127989505Y-115426886D01*
X127980550Y-115426875D01*
X127974226Y-115420535D01*
X127973981Y-115419888D01*
X127542416Y-114163371D01*
X127542970Y-114154435D01*
X127545206Y-114151302D01*
X127676300Y-114020208D01*
X127684572Y-114016782D01*
X127688369Y-114017415D01*
G37*
%TD.AperFunction*%
%TD*%
%TA.AperFunction,Conductor*%
%TO.N,SCL*%
G36*
X110530446Y-76892563D02*
G01*
X110536769Y-76898903D01*
X110536977Y-76899444D01*
X110940972Y-78035063D01*
X110940517Y-78044007D01*
X110938222Y-78047258D01*
X110807198Y-78178282D01*
X110798925Y-78181709D01*
X110795118Y-78181072D01*
X109649608Y-77786899D01*
X109642900Y-77780967D01*
X109642352Y-77772029D01*
X109642592Y-77771393D01*
X109897438Y-77153787D01*
X109903758Y-77147450D01*
X110521493Y-76892551D01*
X110530446Y-76892563D01*
G37*
%TD.AperFunction*%
%TD*%
%TA.AperFunction,Conductor*%
%TO.N,SCL*%
G36*
X114367993Y-86223427D02*
G01*
X114368493Y-86223959D01*
X115110602Y-87065016D01*
X115113506Y-87073487D01*
X115112970Y-87076329D01*
X114276141Y-89686253D01*
X114270352Y-89693085D01*
X114261428Y-89693822D01*
X114254596Y-89688033D01*
X114253859Y-89686253D01*
X113417029Y-87076329D01*
X113417766Y-87067405D01*
X113419394Y-87065019D01*
X114161507Y-86223959D01*
X114169550Y-86220023D01*
X114170280Y-86220000D01*
X114359720Y-86220000D01*
X114367993Y-86223427D01*
G37*
%TD.AperFunction*%
%TD*%
%TA.AperFunction,Conductor*%
%TO.N,SDA*%
G36*
X109278562Y-74352574D02*
G01*
X109896210Y-74607437D01*
X109902550Y-74613760D01*
X109902562Y-74613789D01*
X110157425Y-75231437D01*
X110157413Y-75240392D01*
X110151073Y-75246715D01*
X110150480Y-75246942D01*
X109008916Y-75647013D01*
X108999975Y-75646515D01*
X108996773Y-75644244D01*
X108865755Y-75513226D01*
X108862328Y-75504953D01*
X108862985Y-75501087D01*
X109263058Y-74359517D01*
X109269028Y-74352845D01*
X109277969Y-74352347D01*
X109278562Y-74352574D01*
G37*
%TD.AperFunction*%
%TD*%
%TA.AperFunction,Conductor*%
%TO.N,SDA*%
G36*
X111799743Y-86159731D02*
G01*
X111800390Y-86160432D01*
X112568293Y-87065051D01*
X112571034Y-87073576D01*
X112570518Y-87076183D01*
X111736826Y-89685900D01*
X111731044Y-89692738D01*
X111722121Y-89693485D01*
X111715283Y-89687703D01*
X111714541Y-89685915D01*
X111712340Y-89679057D01*
X110877178Y-87076786D01*
X110877912Y-87067864D01*
X110880029Y-87064956D01*
X111650754Y-86292175D01*
X111783198Y-86159730D01*
X111791470Y-86156304D01*
X111799743Y-86159731D01*
G37*
%TD.AperFunction*%
%TD*%
%TA.AperFunction,Conductor*%
%TO.N,RST*%
G36*
X124527993Y-86223427D02*
G01*
X124528493Y-86223959D01*
X125270602Y-87065016D01*
X125273506Y-87073487D01*
X125272970Y-87076329D01*
X124436141Y-89686253D01*
X124430352Y-89693085D01*
X124421428Y-89693822D01*
X124414596Y-89688033D01*
X124413859Y-89686253D01*
X123577029Y-87076329D01*
X123577766Y-87067405D01*
X123579394Y-87065019D01*
X124321507Y-86223959D01*
X124329550Y-86220023D01*
X124330280Y-86220000D01*
X124519720Y-86220000D01*
X124527993Y-86223427D01*
G37*
%TD.AperFunction*%
%TD*%
%TA.AperFunction,Conductor*%
%TO.N,CS*%
G36*
X110172690Y-66362237D02*
G01*
X110173246Y-66362485D01*
X111263371Y-66886812D01*
X111269342Y-66893485D01*
X111270000Y-66897355D01*
X111270000Y-67082644D01*
X111266573Y-67090917D01*
X111263371Y-67093188D01*
X110173269Y-67617503D01*
X110164328Y-67618001D01*
X110157654Y-67612030D01*
X110157395Y-67611451D01*
X109900866Y-66994490D01*
X109900855Y-66985538D01*
X110157396Y-66368546D01*
X110163735Y-66362225D01*
X110172690Y-66362237D01*
G37*
%TD.AperFunction*%
%TD*%
%TA.AperFunction,Conductor*%
%TO.N,CS*%
G36*
X132147993Y-86223427D02*
G01*
X132148493Y-86223959D01*
X132890602Y-87065016D01*
X132893506Y-87073487D01*
X132892970Y-87076329D01*
X132056141Y-89686253D01*
X132050352Y-89693085D01*
X132041428Y-89693822D01*
X132034596Y-89688033D01*
X132033859Y-89686253D01*
X131197029Y-87076329D01*
X131197766Y-87067405D01*
X131199394Y-87065019D01*
X131941507Y-86223959D01*
X131949550Y-86220023D01*
X131950280Y-86220000D01*
X132139720Y-86220000D01*
X132147993Y-86223427D01*
G37*
%TD.AperFunction*%
%TD*%
%TA.AperFunction,Conductor*%
%TO.N,A0*%
G36*
X127004506Y-86174257D02*
G01*
X127005051Y-86174840D01*
X127781353Y-87065084D01*
X127784208Y-87073572D01*
X127783712Y-87076231D01*
X126976678Y-89685237D01*
X126970960Y-89692128D01*
X126962044Y-89692957D01*
X126955153Y-89687239D01*
X126954361Y-89685355D01*
X126117145Y-87076684D01*
X126117879Y-87067760D01*
X126119885Y-87064964D01*
X126855399Y-86306819D01*
X126987961Y-86174256D01*
X126996233Y-86170830D01*
X127004506Y-86174257D01*
G37*
%TD.AperFunction*%
%TD*%
%TA.AperFunction,Conductor*%
%TO.N,A0*%
G36*
X110172690Y-71442237D02*
G01*
X110173246Y-71442485D01*
X111263371Y-71966812D01*
X111269342Y-71973485D01*
X111270000Y-71977355D01*
X111270000Y-72162644D01*
X111266573Y-72170917D01*
X111263371Y-72173188D01*
X110173269Y-72697503D01*
X110164328Y-72698001D01*
X110157654Y-72692030D01*
X110157395Y-72691451D01*
X109900866Y-72074490D01*
X109900855Y-72065538D01*
X110157396Y-71448546D01*
X110163735Y-71442225D01*
X110172690Y-71442237D01*
G37*
%TD.AperFunction*%
%TD*%
%TA.AperFunction,Conductor*%
%TO.N,MISO*%
G36*
X147387993Y-86223427D02*
G01*
X147388493Y-86223959D01*
X148130602Y-87065016D01*
X148133506Y-87073487D01*
X148132970Y-87076329D01*
X147296141Y-89686253D01*
X147290352Y-89693085D01*
X147281428Y-89693822D01*
X147274596Y-89688033D01*
X147273859Y-89686253D01*
X146437029Y-87076329D01*
X146437766Y-87067405D01*
X146439394Y-87065019D01*
X147181507Y-86223959D01*
X147189550Y-86220023D01*
X147190280Y-86220000D01*
X147379720Y-86220000D01*
X147387993Y-86223427D01*
G37*
%TD.AperFunction*%
%TD*%
%TA.AperFunction,Conductor*%
%TO.N,MISO*%
G36*
X154957465Y-79097923D02*
G01*
X154957758Y-79098570D01*
X155239133Y-79775509D01*
X155239144Y-79784464D01*
X155239133Y-79784491D01*
X154957758Y-80461429D01*
X154951418Y-80467753D01*
X154942463Y-80467742D01*
X154941816Y-80467449D01*
X153746562Y-79883207D01*
X153740634Y-79876496D01*
X153740000Y-79872696D01*
X153740000Y-79687303D01*
X153743427Y-79679030D01*
X153746559Y-79676793D01*
X154941816Y-79092549D01*
X154950754Y-79091995D01*
X154957465Y-79097923D01*
G37*
%TD.AperFunction*%
%TD*%
%TA.AperFunction,Conductor*%
%TO.N,CS*%
G36*
X144847993Y-86223427D02*
G01*
X144848493Y-86223959D01*
X145590602Y-87065016D01*
X145593506Y-87073487D01*
X145592970Y-87076329D01*
X144756141Y-89686253D01*
X144750352Y-89693085D01*
X144741428Y-89693822D01*
X144734596Y-89688033D01*
X144733859Y-89686253D01*
X143897029Y-87076329D01*
X143897766Y-87067405D01*
X143899394Y-87065019D01*
X144641507Y-86223959D01*
X144649550Y-86220023D01*
X144650280Y-86220000D01*
X144839720Y-86220000D01*
X144847993Y-86223427D01*
G37*
%TD.AperFunction*%
%TD*%
%TA.AperFunction,Conductor*%
%TO.N,CS*%
G36*
X154638484Y-74147690D02*
G01*
X155316211Y-74427437D01*
X155322551Y-74433761D01*
X155322562Y-74433788D01*
X155602220Y-75111299D01*
X155602209Y-75120254D01*
X155595869Y-75126578D01*
X155595090Y-75126867D01*
X154328892Y-75547106D01*
X154319961Y-75546460D01*
X154316934Y-75544275D01*
X154185833Y-75413174D01*
X154182406Y-75404901D01*
X154183073Y-75401007D01*
X154622987Y-74154610D01*
X154628972Y-74147950D01*
X154637914Y-74147472D01*
X154638484Y-74147690D01*
G37*
%TD.AperFunction*%
%TD*%
%TA.AperFunction,Conductor*%
%TO.N,MOSI*%
G36*
X149927993Y-86223427D02*
G01*
X149928493Y-86223959D01*
X150670602Y-87065016D01*
X150673506Y-87073487D01*
X150672970Y-87076329D01*
X149836141Y-89686253D01*
X149830352Y-89693085D01*
X149821428Y-89693822D01*
X149814596Y-89688033D01*
X149813859Y-89686253D01*
X148977029Y-87076329D01*
X148977766Y-87067405D01*
X148979394Y-87065019D01*
X149721507Y-86223959D01*
X149729550Y-86220023D01*
X149730280Y-86220000D01*
X149919720Y-86220000D01*
X149927993Y-86223427D01*
G37*
%TD.AperFunction*%
%TD*%
%TA.AperFunction,Conductor*%
%TO.N,MOSI*%
G36*
X156010372Y-76827741D02*
G01*
X156016696Y-76834081D01*
X156016947Y-76834745D01*
X156448998Y-78093040D01*
X156448443Y-78101978D01*
X156446205Y-78105113D01*
X156315113Y-78236205D01*
X156306840Y-78239632D01*
X156303041Y-78238998D01*
X155628604Y-78007422D01*
X155044745Y-77806947D01*
X155038034Y-77801019D01*
X155037479Y-77792081D01*
X155037719Y-77791445D01*
X155317438Y-77113786D01*
X155323759Y-77107449D01*
X156001419Y-76827730D01*
X156010372Y-76827741D01*
G37*
%TD.AperFunction*%
%TD*%
%TA.AperFunction,Conductor*%
%TO.N,+5V*%
G36*
X160237210Y-105803427D02*
G01*
X160238496Y-105804953D01*
X160829320Y-106641953D01*
X160831291Y-106650688D01*
X160828039Y-106656968D01*
X159993278Y-107492712D01*
X159985007Y-107496144D01*
X159976732Y-107492722D01*
X159976722Y-107492712D01*
X159141960Y-106656968D01*
X159138538Y-106648693D01*
X159140677Y-106641956D01*
X159731504Y-105804953D01*
X159739075Y-105800170D01*
X159741063Y-105800000D01*
X160228937Y-105800000D01*
X160237210Y-105803427D01*
G37*
%TD.AperFunction*%
%TD*%
%TA.AperFunction,Conductor*%
%TO.N,SCLK*%
G36*
X155017465Y-81767923D02*
G01*
X155017758Y-81768570D01*
X155299133Y-82445509D01*
X155299144Y-82454464D01*
X155299133Y-82454491D01*
X155017758Y-83131429D01*
X155011418Y-83137753D01*
X155002463Y-83137742D01*
X155001816Y-83137449D01*
X153806562Y-82553207D01*
X153800634Y-82546496D01*
X153800000Y-82542696D01*
X153800000Y-82357303D01*
X153803427Y-82349030D01*
X153806559Y-82346793D01*
X155001816Y-81762549D01*
X155010754Y-81761995D01*
X155017465Y-81767923D01*
G37*
%TD.AperFunction*%
%TD*%
%TA.AperFunction,Conductor*%
%TO.N,SCLK*%
G36*
X152467993Y-86223427D02*
G01*
X152468493Y-86223959D01*
X153210602Y-87065016D01*
X153213506Y-87073487D01*
X153212970Y-87076329D01*
X152376141Y-89686253D01*
X152370352Y-89693085D01*
X152361428Y-89693822D01*
X152354596Y-89688033D01*
X152353859Y-89686253D01*
X151517029Y-87076329D01*
X151517766Y-87067405D01*
X151519394Y-87065019D01*
X152261507Y-86223959D01*
X152269550Y-86220023D01*
X152270280Y-86220000D01*
X152459720Y-86220000D01*
X152467993Y-86223427D01*
G37*
%TD.AperFunction*%
%TD*%
%TA.AperFunction,Conductor*%
%TO.N,+3V3*%
G36*
X150077210Y-105803427D02*
G01*
X150078496Y-105804953D01*
X150669320Y-106641953D01*
X150671291Y-106650688D01*
X150668039Y-106656968D01*
X149833278Y-107492712D01*
X149825007Y-107496144D01*
X149816732Y-107492722D01*
X149816722Y-107492712D01*
X148981960Y-106656968D01*
X148978538Y-106648693D01*
X148980677Y-106641956D01*
X149571504Y-105804953D01*
X149579075Y-105800170D01*
X149581063Y-105800000D01*
X150068937Y-105800000D01*
X150077210Y-105803427D01*
G37*
%TD.AperFunction*%
%TD*%
M02*
