M48
; DRILL file {KiCad 8.0.4} date 2024-09-18T19:22:45-0700
; FORMAT={-:-/ absolute / inch / decimal}
; #@! TF.CreationDate,2024-09-18T19:22:45-07:00
; #@! TF.GenerationSoftware,Kicad,Pcbnew,8.0.4
; #@! TF.FileFunction,Plated,1,2,PTH
FMAT,2
INCH
; #@! TA.AperFunction,Plated,PTH,ViaDrill
T1C0.0118
; #@! TA.AperFunction,Plated,PTH,ComponentDrill
T2C0.0390
; #@! TA.AperFunction,Plated,PTH,ComponentDrill
T3C0.0402
%
G90
G05
T1
X4.3177Y-4.6906
X4.3193Y-4.6634
X4.3461Y-4.6634
X4.3469Y-4.6925
X4.4728Y-3.8531
X4.4728Y-3.9031
X4.572Y-3.3957
X4.5732Y-3.5953
X4.576Y-4.1638
X4.6051Y-2.589
X4.6197Y-3.5957
X4.6236Y-3.3957
X4.6268Y-4.163
X4.6827Y-4.6783
X4.6843Y-4.6512
X4.711Y-4.6512
X4.7118Y-4.6803
X4.7409Y-2.7547
X4.8961Y-3.3677
X4.9087Y-2.8799
X4.9606Y-4.6748
X4.9622Y-4.6476
X4.989Y-4.6476
X4.9898Y-4.6768
X5.0181Y-3.0425
X5.0492Y-3.7673
X5.0528Y-3.8295
X5.0713Y-4.1571
X5.0768Y-3.3972
X5.0795Y-4.3642
X5.0807Y-3.5913
X5.1181Y-3.3972
X5.1181Y-4.1559
X5.1193Y-3.5929
X5.1193Y-4.3657
X5.2083Y-3.1764
X5.2394Y-4.6732
X5.2409Y-4.6461
X5.2677Y-4.6461
X5.2685Y-4.6752
X5.3071Y-3.3142
X5.5205Y-4.674
X5.522Y-4.6469
X5.5488Y-4.6469
X5.5496Y-4.676
X5.5689Y-4.3685
X5.572Y-4.1543
X5.5811Y-3.5949
X5.6098Y-3.3591
X5.6181Y-4.3689
X5.6193Y-3.5945
X5.622Y-4.1555
X5.6346Y-3.3921
X5.7996Y-4.6736
X5.8012Y-4.6465
X5.828Y-4.6465
X5.8287Y-4.6756
X5.8986Y-4.1409
X6.074Y-3.3898
X6.076Y-3.6
X6.0791Y-4.1685
X6.0803Y-4.3669
X6.1087Y-4.7854
X6.1134Y-4.3657
X6.1142Y-3.3902
X6.1173Y-3.6
X6.1177Y-4.1689
X6.1228Y-4.7469
X6.1413Y-4.785
X6.2976Y-4.139
T2
X4.6118Y-4.5329
X4.6118Y-4.7888
X4.789Y-4.5329
X4.789Y-4.7888
X4.8886Y-4.5333
X4.8886Y-4.7892
X5.0657Y-4.5333
X5.0657Y-4.7892
X5.1661Y-4.5335
X5.1661Y-4.7894
X5.3433Y-4.5335
X5.3433Y-4.7894
X5.4476Y-4.5335
X5.4476Y-4.7894
X5.6248Y-4.5335
X5.6248Y-4.7894
X5.7264Y-4.5335
X5.7264Y-4.7894
X5.9035Y-4.5335
X5.9035Y-4.7894
T3
X4.3268Y-2.4374
X4.3268Y-2.5374
X4.3268Y-2.6374
X4.3268Y-2.7374
X4.3268Y-2.8374
X4.3268Y-2.9374
X4.3268Y-3.0374
X4.3268Y-3.1374
M30
