%TF.GenerationSoftware,KiCad,Pcbnew,8.0.4*%
%TF.CreationDate,2024-08-30T14:46:51-07:00*%
%TF.ProjectId,ptpe_pcb,70747065-5f70-4636-922e-6b696361645f,rev?*%
%TF.SameCoordinates,Original*%
%TF.FileFunction,Legend,Top*%
%TF.FilePolarity,Positive*%
%FSLAX46Y46*%
G04 Gerber Fmt 4.6, Leading zero omitted, Abs format (unit mm)*
G04 Created by KiCad (PCBNEW 8.0.4) date 2024-08-30 14:46:51*
%MOMM*%
%LPD*%
G01*
G04 APERTURE LIST*
%ADD10C,0.150000*%
%ADD11C,0.120000*%
%ADD12C,0.200000*%
%ADD13C,0.127000*%
G04 APERTURE END LIST*
D10*
X147830820Y-57496297D02*
X147830820Y-56865654D01*
X147830820Y-56865654D02*
X148071065Y-56865654D01*
X148071065Y-56865654D02*
X148131126Y-56895685D01*
X148131126Y-56895685D02*
X148161156Y-56925715D01*
X148161156Y-56925715D02*
X148191187Y-56985777D01*
X148191187Y-56985777D02*
X148191187Y-57075868D01*
X148191187Y-57075868D02*
X148161156Y-57135930D01*
X148161156Y-57135930D02*
X148131126Y-57165960D01*
X148131126Y-57165960D02*
X148071065Y-57195991D01*
X148071065Y-57195991D02*
X147830820Y-57195991D01*
X148371371Y-56865654D02*
X148731738Y-56865654D01*
X148551554Y-57496297D02*
X148551554Y-56865654D01*
X148941953Y-57496297D02*
X148941953Y-56865654D01*
X148941953Y-56865654D02*
X149182198Y-56865654D01*
X149182198Y-56865654D02*
X149242259Y-56895685D01*
X149242259Y-56895685D02*
X149272289Y-56925715D01*
X149272289Y-56925715D02*
X149302320Y-56985777D01*
X149302320Y-56985777D02*
X149302320Y-57075868D01*
X149302320Y-57075868D02*
X149272289Y-57135930D01*
X149272289Y-57135930D02*
X149242259Y-57165960D01*
X149242259Y-57165960D02*
X149182198Y-57195991D01*
X149182198Y-57195991D02*
X148941953Y-57195991D01*
X149572596Y-57165960D02*
X149782810Y-57165960D01*
X149872902Y-57496297D02*
X149572596Y-57496297D01*
X149572596Y-57496297D02*
X149572596Y-56865654D01*
X149572596Y-56865654D02*
X149872902Y-56865654D01*
X150623668Y-57496297D02*
X150623668Y-56865654D01*
X150623668Y-57105899D02*
X150683729Y-57075868D01*
X150683729Y-57075868D02*
X150803851Y-57075868D01*
X150803851Y-57075868D02*
X150863913Y-57105899D01*
X150863913Y-57105899D02*
X150893943Y-57135930D01*
X150893943Y-57135930D02*
X150923974Y-57195991D01*
X150923974Y-57195991D02*
X150923974Y-57376175D01*
X150923974Y-57376175D02*
X150893943Y-57436236D01*
X150893943Y-57436236D02*
X150863913Y-57466267D01*
X150863913Y-57466267D02*
X150803851Y-57496297D01*
X150803851Y-57496297D02*
X150683729Y-57496297D01*
X150683729Y-57496297D02*
X150623668Y-57466267D01*
X151134188Y-57075868D02*
X151284341Y-57496297D01*
X151434495Y-57075868D02*
X151284341Y-57496297D01*
X151284341Y-57496297D02*
X151224280Y-57646450D01*
X151224280Y-57646450D02*
X151194250Y-57676481D01*
X151194250Y-57676481D02*
X151134188Y-57706511D01*
X152155230Y-57496297D02*
X152155230Y-56865654D01*
X152155230Y-56865654D02*
X152515597Y-57496297D01*
X152515597Y-57496297D02*
X152515597Y-56865654D01*
X152815904Y-57496297D02*
X152815904Y-57075868D01*
X152815904Y-56865654D02*
X152785873Y-56895685D01*
X152785873Y-56895685D02*
X152815904Y-56925715D01*
X152815904Y-56925715D02*
X152845934Y-56895685D01*
X152845934Y-56895685D02*
X152815904Y-56865654D01*
X152815904Y-56865654D02*
X152815904Y-56925715D01*
X153386485Y-57466267D02*
X153326424Y-57496297D01*
X153326424Y-57496297D02*
X153206301Y-57496297D01*
X153206301Y-57496297D02*
X153146240Y-57466267D01*
X153146240Y-57466267D02*
X153116210Y-57436236D01*
X153116210Y-57436236D02*
X153086179Y-57376175D01*
X153086179Y-57376175D02*
X153086179Y-57195991D01*
X153086179Y-57195991D02*
X153116210Y-57135930D01*
X153116210Y-57135930D02*
X153146240Y-57105899D01*
X153146240Y-57105899D02*
X153206301Y-57075868D01*
X153206301Y-57075868D02*
X153326424Y-57075868D01*
X153326424Y-57075868D02*
X153386485Y-57105899D01*
X153746852Y-57496297D02*
X153686791Y-57466267D01*
X153686791Y-57466267D02*
X153656761Y-57436236D01*
X153656761Y-57436236D02*
X153626730Y-57376175D01*
X153626730Y-57376175D02*
X153626730Y-57195991D01*
X153626730Y-57195991D02*
X153656761Y-57135930D01*
X153656761Y-57135930D02*
X153686791Y-57105899D01*
X153686791Y-57105899D02*
X153746852Y-57075868D01*
X153746852Y-57075868D02*
X153836944Y-57075868D01*
X153836944Y-57075868D02*
X153897006Y-57105899D01*
X153897006Y-57105899D02*
X153927036Y-57135930D01*
X153927036Y-57135930D02*
X153957067Y-57195991D01*
X153957067Y-57195991D02*
X153957067Y-57376175D01*
X153957067Y-57376175D02*
X153927036Y-57436236D01*
X153927036Y-57436236D02*
X153897006Y-57466267D01*
X153897006Y-57466267D02*
X153836944Y-57496297D01*
X153836944Y-57496297D02*
X153746852Y-57496297D01*
X154197312Y-57316113D02*
X154497618Y-57316113D01*
X154137251Y-57496297D02*
X154347465Y-56865654D01*
X154347465Y-56865654D02*
X154557679Y-57496297D01*
X154767894Y-57496297D02*
X154767894Y-56865654D01*
X155428567Y-57436236D02*
X155398536Y-57466267D01*
X155398536Y-57466267D02*
X155308445Y-57496297D01*
X155308445Y-57496297D02*
X155248383Y-57496297D01*
X155248383Y-57496297D02*
X155158291Y-57466267D01*
X155158291Y-57466267D02*
X155098230Y-57406205D01*
X155098230Y-57406205D02*
X155068200Y-57346144D01*
X155068200Y-57346144D02*
X155038169Y-57226022D01*
X155038169Y-57226022D02*
X155038169Y-57135930D01*
X155038169Y-57135930D02*
X155068200Y-57015807D01*
X155068200Y-57015807D02*
X155098230Y-56955746D01*
X155098230Y-56955746D02*
X155158291Y-56895685D01*
X155158291Y-56895685D02*
X155248383Y-56865654D01*
X155248383Y-56865654D02*
X155308445Y-56865654D01*
X155308445Y-56865654D02*
X155398536Y-56895685D01*
X155398536Y-56895685D02*
X155428567Y-56925715D01*
X155698843Y-57496297D02*
X155698843Y-56865654D01*
X155698843Y-56865654D02*
X155939088Y-56865654D01*
X155939088Y-56865654D02*
X155999149Y-56895685D01*
X155999149Y-56895685D02*
X156029179Y-56925715D01*
X156029179Y-56925715D02*
X156059210Y-56985777D01*
X156059210Y-56985777D02*
X156059210Y-57075868D01*
X156059210Y-57075868D02*
X156029179Y-57135930D01*
X156029179Y-57135930D02*
X155999149Y-57165960D01*
X155999149Y-57165960D02*
X155939088Y-57195991D01*
X155939088Y-57195991D02*
X155698843Y-57195991D01*
X146539504Y-58511597D02*
X146539504Y-57880954D01*
X146539504Y-57880954D02*
X146779749Y-57880954D01*
X146779749Y-57880954D02*
X146839810Y-57910985D01*
X146839810Y-57910985D02*
X146869840Y-57941015D01*
X146869840Y-57941015D02*
X146899871Y-58001077D01*
X146899871Y-58001077D02*
X146899871Y-58091168D01*
X146899871Y-58091168D02*
X146869840Y-58151230D01*
X146869840Y-58151230D02*
X146839810Y-58181260D01*
X146839810Y-58181260D02*
X146779749Y-58211291D01*
X146779749Y-58211291D02*
X146539504Y-58211291D01*
X147080055Y-57880954D02*
X147440422Y-57880954D01*
X147260238Y-58511597D02*
X147260238Y-57880954D01*
X147650637Y-58511597D02*
X147650637Y-57880954D01*
X147650637Y-57880954D02*
X147890882Y-57880954D01*
X147890882Y-57880954D02*
X147950943Y-57910985D01*
X147950943Y-57910985D02*
X147980973Y-57941015D01*
X147980973Y-57941015D02*
X148011004Y-58001077D01*
X148011004Y-58001077D02*
X148011004Y-58091168D01*
X148011004Y-58091168D02*
X147980973Y-58151230D01*
X147980973Y-58151230D02*
X147950943Y-58181260D01*
X147950943Y-58181260D02*
X147890882Y-58211291D01*
X147890882Y-58211291D02*
X147650637Y-58211291D01*
X148281280Y-58181260D02*
X148491494Y-58181260D01*
X148581586Y-58511597D02*
X148281280Y-58511597D01*
X148281280Y-58511597D02*
X148281280Y-57880954D01*
X148281280Y-57880954D02*
X148581586Y-57880954D01*
X149332352Y-58511597D02*
X149332352Y-57880954D01*
X149332352Y-57880954D02*
X149572597Y-57880954D01*
X149572597Y-57880954D02*
X149632658Y-57910985D01*
X149632658Y-57910985D02*
X149662688Y-57941015D01*
X149662688Y-57941015D02*
X149692719Y-58001077D01*
X149692719Y-58001077D02*
X149692719Y-58091168D01*
X149692719Y-58091168D02*
X149662688Y-58151230D01*
X149662688Y-58151230D02*
X149632658Y-58181260D01*
X149632658Y-58181260D02*
X149572597Y-58211291D01*
X149572597Y-58211291D02*
X149332352Y-58211291D01*
X150323362Y-58451536D02*
X150293331Y-58481567D01*
X150293331Y-58481567D02*
X150203240Y-58511597D01*
X150203240Y-58511597D02*
X150143178Y-58511597D01*
X150143178Y-58511597D02*
X150053086Y-58481567D01*
X150053086Y-58481567D02*
X149993025Y-58421505D01*
X149993025Y-58421505D02*
X149962995Y-58361444D01*
X149962995Y-58361444D02*
X149932964Y-58241322D01*
X149932964Y-58241322D02*
X149932964Y-58151230D01*
X149932964Y-58151230D02*
X149962995Y-58031107D01*
X149962995Y-58031107D02*
X149993025Y-57971046D01*
X149993025Y-57971046D02*
X150053086Y-57910985D01*
X150053086Y-57910985D02*
X150143178Y-57880954D01*
X150143178Y-57880954D02*
X150203240Y-57880954D01*
X150203240Y-57880954D02*
X150293331Y-57910985D01*
X150293331Y-57910985D02*
X150323362Y-57941015D01*
X150803852Y-58181260D02*
X150893944Y-58211291D01*
X150893944Y-58211291D02*
X150923974Y-58241322D01*
X150923974Y-58241322D02*
X150954005Y-58301383D01*
X150954005Y-58301383D02*
X150954005Y-58391475D01*
X150954005Y-58391475D02*
X150923974Y-58451536D01*
X150923974Y-58451536D02*
X150893944Y-58481567D01*
X150893944Y-58481567D02*
X150833883Y-58511597D01*
X150833883Y-58511597D02*
X150593638Y-58511597D01*
X150593638Y-58511597D02*
X150593638Y-57880954D01*
X150593638Y-57880954D02*
X150803852Y-57880954D01*
X150803852Y-57880954D02*
X150863913Y-57910985D01*
X150863913Y-57910985D02*
X150893944Y-57941015D01*
X150893944Y-57941015D02*
X150923974Y-58001077D01*
X150923974Y-58001077D02*
X150923974Y-58061138D01*
X150923974Y-58061138D02*
X150893944Y-58121199D01*
X150893944Y-58121199D02*
X150863913Y-58151230D01*
X150863913Y-58151230D02*
X150803852Y-58181260D01*
X150803852Y-58181260D02*
X150593638Y-58181260D01*
X151704771Y-58511597D02*
X151704771Y-57880954D01*
X151704771Y-58121199D02*
X151764832Y-58091168D01*
X151764832Y-58091168D02*
X151884954Y-58091168D01*
X151884954Y-58091168D02*
X151945016Y-58121199D01*
X151945016Y-58121199D02*
X151975046Y-58151230D01*
X151975046Y-58151230D02*
X152005077Y-58211291D01*
X152005077Y-58211291D02*
X152005077Y-58391475D01*
X152005077Y-58391475D02*
X151975046Y-58451536D01*
X151975046Y-58451536D02*
X151945016Y-58481567D01*
X151945016Y-58481567D02*
X151884954Y-58511597D01*
X151884954Y-58511597D02*
X151764832Y-58511597D01*
X151764832Y-58511597D02*
X151704771Y-58481567D01*
X152215291Y-58091168D02*
X152365444Y-58511597D01*
X152515598Y-58091168D02*
X152365444Y-58511597D01*
X152365444Y-58511597D02*
X152305383Y-58661750D01*
X152305383Y-58661750D02*
X152275353Y-58691781D01*
X152275353Y-58691781D02*
X152215291Y-58721811D01*
X153536639Y-58511597D02*
X153236333Y-58511597D01*
X153236333Y-58511597D02*
X153236333Y-57880954D01*
X154017129Y-58511597D02*
X154017129Y-58181260D01*
X154017129Y-58181260D02*
X153987099Y-58121199D01*
X153987099Y-58121199D02*
X153927037Y-58091168D01*
X153927037Y-58091168D02*
X153806915Y-58091168D01*
X153806915Y-58091168D02*
X153746854Y-58121199D01*
X154017129Y-58481567D02*
X153957068Y-58511597D01*
X153957068Y-58511597D02*
X153806915Y-58511597D01*
X153806915Y-58511597D02*
X153746854Y-58481567D01*
X153746854Y-58481567D02*
X153716823Y-58421505D01*
X153716823Y-58421505D02*
X153716823Y-58361444D01*
X153716823Y-58361444D02*
X153746854Y-58301383D01*
X153746854Y-58301383D02*
X153806915Y-58271352D01*
X153806915Y-58271352D02*
X153957068Y-58271352D01*
X153957068Y-58271352D02*
X154017129Y-58241322D01*
X154257374Y-58091168D02*
X154587711Y-58091168D01*
X154587711Y-58091168D02*
X154257374Y-58511597D01*
X154257374Y-58511597D02*
X154587711Y-58511597D01*
X154827957Y-58511597D02*
X154827957Y-58091168D01*
X154827957Y-58211291D02*
X154857987Y-58151230D01*
X154857987Y-58151230D02*
X154888018Y-58121199D01*
X154888018Y-58121199D02*
X154948079Y-58091168D01*
X154948079Y-58091168D02*
X155008140Y-58091168D01*
X155548691Y-58511597D02*
X155188324Y-58511597D01*
X155368508Y-58511597D02*
X155368508Y-57880954D01*
X155368508Y-57880954D02*
X155308446Y-57971046D01*
X155308446Y-57971046D02*
X155248385Y-58031107D01*
X155248385Y-58031107D02*
X155188324Y-58061138D01*
X155939089Y-57880954D02*
X155999150Y-57880954D01*
X155999150Y-57880954D02*
X156059212Y-57910985D01*
X156059212Y-57910985D02*
X156089242Y-57941015D01*
X156089242Y-57941015D02*
X156119273Y-58001077D01*
X156119273Y-58001077D02*
X156149303Y-58121199D01*
X156149303Y-58121199D02*
X156149303Y-58271352D01*
X156149303Y-58271352D02*
X156119273Y-58391475D01*
X156119273Y-58391475D02*
X156089242Y-58451536D01*
X156089242Y-58451536D02*
X156059212Y-58481567D01*
X156059212Y-58481567D02*
X155999150Y-58511597D01*
X155999150Y-58511597D02*
X155939089Y-58511597D01*
X155939089Y-58511597D02*
X155879028Y-58481567D01*
X155879028Y-58481567D02*
X155848997Y-58451536D01*
X155848997Y-58451536D02*
X155818967Y-58391475D01*
X155818967Y-58391475D02*
X155788936Y-58271352D01*
X155788936Y-58271352D02*
X155788936Y-58121199D01*
X155788936Y-58121199D02*
X155818967Y-58001077D01*
X155818967Y-58001077D02*
X155848997Y-57941015D01*
X155848997Y-57941015D02*
X155879028Y-57910985D01*
X155879028Y-57910985D02*
X155939089Y-57880954D01*
X156389548Y-57941015D02*
X156419579Y-57910985D01*
X156419579Y-57910985D02*
X156479640Y-57880954D01*
X156479640Y-57880954D02*
X156629793Y-57880954D01*
X156629793Y-57880954D02*
X156689854Y-57910985D01*
X156689854Y-57910985D02*
X156719885Y-57941015D01*
X156719885Y-57941015D02*
X156749915Y-58001077D01*
X156749915Y-58001077D02*
X156749915Y-58061138D01*
X156749915Y-58061138D02*
X156719885Y-58151230D01*
X156719885Y-58151230D02*
X156359517Y-58511597D01*
X156359517Y-58511597D02*
X156749915Y-58511597D01*
X157290466Y-57880954D02*
X157170344Y-57880954D01*
X157170344Y-57880954D02*
X157110282Y-57910985D01*
X157110282Y-57910985D02*
X157080252Y-57941015D01*
X157080252Y-57941015D02*
X157020191Y-58031107D01*
X157020191Y-58031107D02*
X156990160Y-58151230D01*
X156990160Y-58151230D02*
X156990160Y-58391475D01*
X156990160Y-58391475D02*
X157020191Y-58451536D01*
X157020191Y-58451536D02*
X157050221Y-58481567D01*
X157050221Y-58481567D02*
X157110282Y-58511597D01*
X157110282Y-58511597D02*
X157230405Y-58511597D01*
X157230405Y-58511597D02*
X157290466Y-58481567D01*
X157290466Y-58481567D02*
X157320497Y-58451536D01*
X157320497Y-58451536D02*
X157350527Y-58391475D01*
X157350527Y-58391475D02*
X157350527Y-58241322D01*
X157350527Y-58241322D02*
X157320497Y-58181260D01*
X157320497Y-58181260D02*
X157290466Y-58151230D01*
X157290466Y-58151230D02*
X157230405Y-58121199D01*
X157230405Y-58121199D02*
X157110282Y-58121199D01*
X157110282Y-58121199D02*
X157050221Y-58151230D01*
X157050221Y-58151230D02*
X157020191Y-58181260D01*
X157020191Y-58181260D02*
X156990160Y-58241322D01*
X156819524Y-82837200D02*
X156962381Y-82884819D01*
X156962381Y-82884819D02*
X157200476Y-82884819D01*
X157200476Y-82884819D02*
X157295714Y-82837200D01*
X157295714Y-82837200D02*
X157343333Y-82789580D01*
X157343333Y-82789580D02*
X157390952Y-82694342D01*
X157390952Y-82694342D02*
X157390952Y-82599104D01*
X157390952Y-82599104D02*
X157343333Y-82503866D01*
X157343333Y-82503866D02*
X157295714Y-82456247D01*
X157295714Y-82456247D02*
X157200476Y-82408628D01*
X157200476Y-82408628D02*
X157010000Y-82361009D01*
X157010000Y-82361009D02*
X156914762Y-82313390D01*
X156914762Y-82313390D02*
X156867143Y-82265771D01*
X156867143Y-82265771D02*
X156819524Y-82170533D01*
X156819524Y-82170533D02*
X156819524Y-82075295D01*
X156819524Y-82075295D02*
X156867143Y-81980057D01*
X156867143Y-81980057D02*
X156914762Y-81932438D01*
X156914762Y-81932438D02*
X157010000Y-81884819D01*
X157010000Y-81884819D02*
X157248095Y-81884819D01*
X157248095Y-81884819D02*
X157390952Y-81932438D01*
X158390952Y-82789580D02*
X158343333Y-82837200D01*
X158343333Y-82837200D02*
X158200476Y-82884819D01*
X158200476Y-82884819D02*
X158105238Y-82884819D01*
X158105238Y-82884819D02*
X157962381Y-82837200D01*
X157962381Y-82837200D02*
X157867143Y-82741961D01*
X157867143Y-82741961D02*
X157819524Y-82646723D01*
X157819524Y-82646723D02*
X157771905Y-82456247D01*
X157771905Y-82456247D02*
X157771905Y-82313390D01*
X157771905Y-82313390D02*
X157819524Y-82122914D01*
X157819524Y-82122914D02*
X157867143Y-82027676D01*
X157867143Y-82027676D02*
X157962381Y-81932438D01*
X157962381Y-81932438D02*
X158105238Y-81884819D01*
X158105238Y-81884819D02*
X158200476Y-81884819D01*
X158200476Y-81884819D02*
X158343333Y-81932438D01*
X158343333Y-81932438D02*
X158390952Y-81980057D01*
X159295714Y-82884819D02*
X158819524Y-82884819D01*
X158819524Y-82884819D02*
X158819524Y-81884819D01*
X159629048Y-82884819D02*
X159629048Y-81884819D01*
X160200476Y-82884819D02*
X159771905Y-82313390D01*
X160200476Y-81884819D02*
X159629048Y-82456247D01*
X156858572Y-80234819D02*
X156858572Y-79234819D01*
X156858572Y-79234819D02*
X157191905Y-79949104D01*
X157191905Y-79949104D02*
X157525238Y-79234819D01*
X157525238Y-79234819D02*
X157525238Y-80234819D01*
X158191905Y-79234819D02*
X158382381Y-79234819D01*
X158382381Y-79234819D02*
X158477619Y-79282438D01*
X158477619Y-79282438D02*
X158572857Y-79377676D01*
X158572857Y-79377676D02*
X158620476Y-79568152D01*
X158620476Y-79568152D02*
X158620476Y-79901485D01*
X158620476Y-79901485D02*
X158572857Y-80091961D01*
X158572857Y-80091961D02*
X158477619Y-80187200D01*
X158477619Y-80187200D02*
X158382381Y-80234819D01*
X158382381Y-80234819D02*
X158191905Y-80234819D01*
X158191905Y-80234819D02*
X158096667Y-80187200D01*
X158096667Y-80187200D02*
X158001429Y-80091961D01*
X158001429Y-80091961D02*
X157953810Y-79901485D01*
X157953810Y-79901485D02*
X157953810Y-79568152D01*
X157953810Y-79568152D02*
X158001429Y-79377676D01*
X158001429Y-79377676D02*
X158096667Y-79282438D01*
X158096667Y-79282438D02*
X158191905Y-79234819D01*
X159001429Y-80187200D02*
X159144286Y-80234819D01*
X159144286Y-80234819D02*
X159382381Y-80234819D01*
X159382381Y-80234819D02*
X159477619Y-80187200D01*
X159477619Y-80187200D02*
X159525238Y-80139580D01*
X159525238Y-80139580D02*
X159572857Y-80044342D01*
X159572857Y-80044342D02*
X159572857Y-79949104D01*
X159572857Y-79949104D02*
X159525238Y-79853866D01*
X159525238Y-79853866D02*
X159477619Y-79806247D01*
X159477619Y-79806247D02*
X159382381Y-79758628D01*
X159382381Y-79758628D02*
X159191905Y-79711009D01*
X159191905Y-79711009D02*
X159096667Y-79663390D01*
X159096667Y-79663390D02*
X159049048Y-79615771D01*
X159049048Y-79615771D02*
X159001429Y-79520533D01*
X159001429Y-79520533D02*
X159001429Y-79425295D01*
X159001429Y-79425295D02*
X159049048Y-79330057D01*
X159049048Y-79330057D02*
X159096667Y-79282438D01*
X159096667Y-79282438D02*
X159191905Y-79234819D01*
X159191905Y-79234819D02*
X159430000Y-79234819D01*
X159430000Y-79234819D02*
X159572857Y-79282438D01*
X160001429Y-80234819D02*
X160001429Y-79234819D01*
X156828572Y-77554819D02*
X156828572Y-76554819D01*
X156828572Y-76554819D02*
X157161905Y-77269104D01*
X157161905Y-77269104D02*
X157495238Y-76554819D01*
X157495238Y-76554819D02*
X157495238Y-77554819D01*
X157971429Y-77554819D02*
X157971429Y-76554819D01*
X158400000Y-77507200D02*
X158542857Y-77554819D01*
X158542857Y-77554819D02*
X158780952Y-77554819D01*
X158780952Y-77554819D02*
X158876190Y-77507200D01*
X158876190Y-77507200D02*
X158923809Y-77459580D01*
X158923809Y-77459580D02*
X158971428Y-77364342D01*
X158971428Y-77364342D02*
X158971428Y-77269104D01*
X158971428Y-77269104D02*
X158923809Y-77173866D01*
X158923809Y-77173866D02*
X158876190Y-77126247D01*
X158876190Y-77126247D02*
X158780952Y-77078628D01*
X158780952Y-77078628D02*
X158590476Y-77031009D01*
X158590476Y-77031009D02*
X158495238Y-76983390D01*
X158495238Y-76983390D02*
X158447619Y-76935771D01*
X158447619Y-76935771D02*
X158400000Y-76840533D01*
X158400000Y-76840533D02*
X158400000Y-76745295D01*
X158400000Y-76745295D02*
X158447619Y-76650057D01*
X158447619Y-76650057D02*
X158495238Y-76602438D01*
X158495238Y-76602438D02*
X158590476Y-76554819D01*
X158590476Y-76554819D02*
X158828571Y-76554819D01*
X158828571Y-76554819D02*
X158971428Y-76602438D01*
X159590476Y-76554819D02*
X159780952Y-76554819D01*
X159780952Y-76554819D02*
X159876190Y-76602438D01*
X159876190Y-76602438D02*
X159971428Y-76697676D01*
X159971428Y-76697676D02*
X160019047Y-76888152D01*
X160019047Y-76888152D02*
X160019047Y-77221485D01*
X160019047Y-77221485D02*
X159971428Y-77411961D01*
X159971428Y-77411961D02*
X159876190Y-77507200D01*
X159876190Y-77507200D02*
X159780952Y-77554819D01*
X159780952Y-77554819D02*
X159590476Y-77554819D01*
X159590476Y-77554819D02*
X159495238Y-77507200D01*
X159495238Y-77507200D02*
X159400000Y-77411961D01*
X159400000Y-77411961D02*
X159352381Y-77221485D01*
X159352381Y-77221485D02*
X159352381Y-76888152D01*
X159352381Y-76888152D02*
X159400000Y-76697676D01*
X159400000Y-76697676D02*
X159495238Y-76602438D01*
X159495238Y-76602438D02*
X159590476Y-76554819D01*
X157463333Y-74789580D02*
X157415714Y-74837200D01*
X157415714Y-74837200D02*
X157272857Y-74884819D01*
X157272857Y-74884819D02*
X157177619Y-74884819D01*
X157177619Y-74884819D02*
X157034762Y-74837200D01*
X157034762Y-74837200D02*
X156939524Y-74741961D01*
X156939524Y-74741961D02*
X156891905Y-74646723D01*
X156891905Y-74646723D02*
X156844286Y-74456247D01*
X156844286Y-74456247D02*
X156844286Y-74313390D01*
X156844286Y-74313390D02*
X156891905Y-74122914D01*
X156891905Y-74122914D02*
X156939524Y-74027676D01*
X156939524Y-74027676D02*
X157034762Y-73932438D01*
X157034762Y-73932438D02*
X157177619Y-73884819D01*
X157177619Y-73884819D02*
X157272857Y-73884819D01*
X157272857Y-73884819D02*
X157415714Y-73932438D01*
X157415714Y-73932438D02*
X157463333Y-73980057D01*
X157844286Y-74837200D02*
X157987143Y-74884819D01*
X157987143Y-74884819D02*
X158225238Y-74884819D01*
X158225238Y-74884819D02*
X158320476Y-74837200D01*
X158320476Y-74837200D02*
X158368095Y-74789580D01*
X158368095Y-74789580D02*
X158415714Y-74694342D01*
X158415714Y-74694342D02*
X158415714Y-74599104D01*
X158415714Y-74599104D02*
X158368095Y-74503866D01*
X158368095Y-74503866D02*
X158320476Y-74456247D01*
X158320476Y-74456247D02*
X158225238Y-74408628D01*
X158225238Y-74408628D02*
X158034762Y-74361009D01*
X158034762Y-74361009D02*
X157939524Y-74313390D01*
X157939524Y-74313390D02*
X157891905Y-74265771D01*
X157891905Y-74265771D02*
X157844286Y-74170533D01*
X157844286Y-74170533D02*
X157844286Y-74075295D01*
X157844286Y-74075295D02*
X157891905Y-73980057D01*
X157891905Y-73980057D02*
X157939524Y-73932438D01*
X157939524Y-73932438D02*
X158034762Y-73884819D01*
X158034762Y-73884819D02*
X158272857Y-73884819D01*
X158272857Y-73884819D02*
X158415714Y-73932438D01*
X135309819Y-99371904D02*
X136119342Y-99371904D01*
X136119342Y-99371904D02*
X136214580Y-99324285D01*
X136214580Y-99324285D02*
X136262200Y-99276666D01*
X136262200Y-99276666D02*
X136309819Y-99181428D01*
X136309819Y-99181428D02*
X136309819Y-98990952D01*
X136309819Y-98990952D02*
X136262200Y-98895714D01*
X136262200Y-98895714D02*
X136214580Y-98848095D01*
X136214580Y-98848095D02*
X136119342Y-98800476D01*
X136119342Y-98800476D02*
X135309819Y-98800476D01*
X136309819Y-97800476D02*
X136309819Y-98371904D01*
X136309819Y-98086190D02*
X135309819Y-98086190D01*
X135309819Y-98086190D02*
X135452676Y-98181428D01*
X135452676Y-98181428D02*
X135547914Y-98276666D01*
X135547914Y-98276666D02*
X135595533Y-98371904D01*
X148403393Y-124233947D02*
X148403393Y-123603304D01*
X148403393Y-123603304D02*
X148613607Y-124053763D01*
X148613607Y-124053763D02*
X148823821Y-123603304D01*
X148823821Y-123603304D02*
X148823821Y-124233947D01*
X149124128Y-124233947D02*
X149124128Y-123813518D01*
X149124128Y-123603304D02*
X149094097Y-123633335D01*
X149094097Y-123633335D02*
X149124128Y-123663365D01*
X149124128Y-123663365D02*
X149154158Y-123633335D01*
X149154158Y-123633335D02*
X149124128Y-123603304D01*
X149124128Y-123603304D02*
X149124128Y-123663365D01*
X149394403Y-124203917D02*
X149454464Y-124233947D01*
X149454464Y-124233947D02*
X149574587Y-124233947D01*
X149574587Y-124233947D02*
X149634648Y-124203917D01*
X149634648Y-124203917D02*
X149664679Y-124143855D01*
X149664679Y-124143855D02*
X149664679Y-124113825D01*
X149664679Y-124113825D02*
X149634648Y-124053763D01*
X149634648Y-124053763D02*
X149574587Y-124023733D01*
X149574587Y-124023733D02*
X149484495Y-124023733D01*
X149484495Y-124023733D02*
X149424434Y-123993702D01*
X149424434Y-123993702D02*
X149394403Y-123933641D01*
X149394403Y-123933641D02*
X149394403Y-123903610D01*
X149394403Y-123903610D02*
X149424434Y-123843549D01*
X149424434Y-123843549D02*
X149484495Y-123813518D01*
X149484495Y-123813518D02*
X149574587Y-123813518D01*
X149574587Y-123813518D02*
X149634648Y-123843549D01*
X150205230Y-124203917D02*
X150145169Y-124233947D01*
X150145169Y-124233947D02*
X150025046Y-124233947D01*
X150025046Y-124233947D02*
X149964985Y-124203917D01*
X149964985Y-124203917D02*
X149934955Y-124173886D01*
X149934955Y-124173886D02*
X149904924Y-124113825D01*
X149904924Y-124113825D02*
X149904924Y-123933641D01*
X149904924Y-123933641D02*
X149934955Y-123873580D01*
X149934955Y-123873580D02*
X149964985Y-123843549D01*
X149964985Y-123843549D02*
X150025046Y-123813518D01*
X150025046Y-123813518D02*
X150145169Y-123813518D01*
X150145169Y-123813518D02*
X150205230Y-123843549D01*
X150925965Y-123663365D02*
X150955996Y-123633335D01*
X150955996Y-123633335D02*
X151016057Y-123603304D01*
X151016057Y-123603304D02*
X151166210Y-123603304D01*
X151166210Y-123603304D02*
X151226271Y-123633335D01*
X151226271Y-123633335D02*
X151256302Y-123663365D01*
X151256302Y-123663365D02*
X151286332Y-123723427D01*
X151286332Y-123723427D02*
X151286332Y-123783488D01*
X151286332Y-123783488D02*
X151256302Y-123873580D01*
X151256302Y-123873580D02*
X150895934Y-124233947D01*
X150895934Y-124233947D02*
X151286332Y-124233947D01*
X151556608Y-124173886D02*
X151586638Y-124203917D01*
X151586638Y-124203917D02*
X151556608Y-124233947D01*
X151556608Y-124233947D02*
X151526577Y-124203917D01*
X151526577Y-124203917D02*
X151556608Y-124173886D01*
X151556608Y-124173886D02*
X151556608Y-124233947D01*
X134358638Y-124073917D02*
X134448730Y-124103947D01*
X134448730Y-124103947D02*
X134598883Y-124103947D01*
X134598883Y-124103947D02*
X134658944Y-124073917D01*
X134658944Y-124073917D02*
X134688975Y-124043886D01*
X134688975Y-124043886D02*
X134719005Y-123983825D01*
X134719005Y-123983825D02*
X134719005Y-123923763D01*
X134719005Y-123923763D02*
X134688975Y-123863702D01*
X134688975Y-123863702D02*
X134658944Y-123833672D01*
X134658944Y-123833672D02*
X134598883Y-123803641D01*
X134598883Y-123803641D02*
X134478760Y-123773610D01*
X134478760Y-123773610D02*
X134418699Y-123743580D01*
X134418699Y-123743580D02*
X134388669Y-123713549D01*
X134388669Y-123713549D02*
X134358638Y-123653488D01*
X134358638Y-123653488D02*
X134358638Y-123593427D01*
X134358638Y-123593427D02*
X134388669Y-123533365D01*
X134388669Y-123533365D02*
X134418699Y-123503335D01*
X134418699Y-123503335D02*
X134478760Y-123473304D01*
X134478760Y-123473304D02*
X134628914Y-123473304D01*
X134628914Y-123473304D02*
X134719005Y-123503335D01*
X135229526Y-124073917D02*
X135169464Y-124103947D01*
X135169464Y-124103947D02*
X135049342Y-124103947D01*
X135049342Y-124103947D02*
X134989281Y-124073917D01*
X134989281Y-124073917D02*
X134959250Y-124013855D01*
X134959250Y-124013855D02*
X134959250Y-123773610D01*
X134959250Y-123773610D02*
X134989281Y-123713549D01*
X134989281Y-123713549D02*
X135049342Y-123683518D01*
X135049342Y-123683518D02*
X135169464Y-123683518D01*
X135169464Y-123683518D02*
X135229526Y-123713549D01*
X135229526Y-123713549D02*
X135259556Y-123773610D01*
X135259556Y-123773610D02*
X135259556Y-123833672D01*
X135259556Y-123833672D02*
X134959250Y-123893733D01*
X135619923Y-124103947D02*
X135559862Y-124073917D01*
X135559862Y-124073917D02*
X135529832Y-124013855D01*
X135529832Y-124013855D02*
X135529832Y-123473304D01*
X136100414Y-124073917D02*
X136040352Y-124103947D01*
X136040352Y-124103947D02*
X135920230Y-124103947D01*
X135920230Y-124103947D02*
X135860169Y-124073917D01*
X135860169Y-124073917D02*
X135830138Y-124013855D01*
X135830138Y-124013855D02*
X135830138Y-123773610D01*
X135830138Y-123773610D02*
X135860169Y-123713549D01*
X135860169Y-123713549D02*
X135920230Y-123683518D01*
X135920230Y-123683518D02*
X136040352Y-123683518D01*
X136040352Y-123683518D02*
X136100414Y-123713549D01*
X136100414Y-123713549D02*
X136130444Y-123773610D01*
X136130444Y-123773610D02*
X136130444Y-123833672D01*
X136130444Y-123833672D02*
X135830138Y-123893733D01*
X136670995Y-124073917D02*
X136610934Y-124103947D01*
X136610934Y-124103947D02*
X136490811Y-124103947D01*
X136490811Y-124103947D02*
X136430750Y-124073917D01*
X136430750Y-124073917D02*
X136400720Y-124043886D01*
X136400720Y-124043886D02*
X136370689Y-123983825D01*
X136370689Y-123983825D02*
X136370689Y-123803641D01*
X136370689Y-123803641D02*
X136400720Y-123743580D01*
X136400720Y-123743580D02*
X136430750Y-123713549D01*
X136430750Y-123713549D02*
X136490811Y-123683518D01*
X136490811Y-123683518D02*
X136610934Y-123683518D01*
X136610934Y-123683518D02*
X136670995Y-123713549D01*
X136851179Y-123683518D02*
X137091424Y-123683518D01*
X136941271Y-123473304D02*
X136941271Y-124013855D01*
X136941271Y-124013855D02*
X136971301Y-124073917D01*
X136971301Y-124073917D02*
X137031362Y-124103947D01*
X137031362Y-124103947D02*
X137091424Y-124103947D01*
X141218315Y-124263947D02*
X141008101Y-123963641D01*
X140857948Y-124263947D02*
X140857948Y-123633304D01*
X140857948Y-123633304D02*
X141098193Y-123633304D01*
X141098193Y-123633304D02*
X141158254Y-123663335D01*
X141158254Y-123663335D02*
X141188284Y-123693365D01*
X141188284Y-123693365D02*
X141218315Y-123753427D01*
X141218315Y-123753427D02*
X141218315Y-123843518D01*
X141218315Y-123843518D02*
X141188284Y-123903580D01*
X141188284Y-123903580D02*
X141158254Y-123933610D01*
X141158254Y-123933610D02*
X141098193Y-123963641D01*
X141098193Y-123963641D02*
X140857948Y-123963641D01*
X141488591Y-124263947D02*
X141488591Y-123843518D01*
X141488591Y-123633304D02*
X141458560Y-123663335D01*
X141458560Y-123663335D02*
X141488591Y-123693365D01*
X141488591Y-123693365D02*
X141518621Y-123663335D01*
X141518621Y-123663335D02*
X141488591Y-123633304D01*
X141488591Y-123633304D02*
X141488591Y-123693365D01*
X142059172Y-123843518D02*
X142059172Y-124354039D01*
X142059172Y-124354039D02*
X142029142Y-124414100D01*
X142029142Y-124414100D02*
X141999111Y-124444131D01*
X141999111Y-124444131D02*
X141939050Y-124474161D01*
X141939050Y-124474161D02*
X141848958Y-124474161D01*
X141848958Y-124474161D02*
X141788897Y-124444131D01*
X142059172Y-124233917D02*
X141999111Y-124263947D01*
X141999111Y-124263947D02*
X141878988Y-124263947D01*
X141878988Y-124263947D02*
X141818927Y-124233917D01*
X141818927Y-124233917D02*
X141788897Y-124203886D01*
X141788897Y-124203886D02*
X141758866Y-124143825D01*
X141758866Y-124143825D02*
X141758866Y-123963641D01*
X141758866Y-123963641D02*
X141788897Y-123903580D01*
X141788897Y-123903580D02*
X141818927Y-123873549D01*
X141818927Y-123873549D02*
X141878988Y-123843518D01*
X141878988Y-123843518D02*
X141999111Y-123843518D01*
X141999111Y-123843518D02*
X142059172Y-123873549D01*
X142359479Y-124263947D02*
X142359479Y-123633304D01*
X142629754Y-124263947D02*
X142629754Y-123933610D01*
X142629754Y-123933610D02*
X142599724Y-123873549D01*
X142599724Y-123873549D02*
X142539662Y-123843518D01*
X142539662Y-123843518D02*
X142449570Y-123843518D01*
X142449570Y-123843518D02*
X142389509Y-123873549D01*
X142389509Y-123873549D02*
X142359479Y-123903580D01*
X142839969Y-123843518D02*
X143080214Y-123843518D01*
X142930061Y-123633304D02*
X142930061Y-124173855D01*
X142930061Y-124173855D02*
X142960091Y-124233917D01*
X142960091Y-124233917D02*
X143020152Y-124263947D01*
X143020152Y-124263947D02*
X143080214Y-124263947D01*
X143740887Y-123603274D02*
X143200336Y-124414100D01*
X143951102Y-123633304D02*
X143951102Y-124143825D01*
X143951102Y-124143825D02*
X143981132Y-124203886D01*
X143981132Y-124203886D02*
X144011163Y-124233917D01*
X144011163Y-124233917D02*
X144071224Y-124263947D01*
X144071224Y-124263947D02*
X144191347Y-124263947D01*
X144191347Y-124263947D02*
X144251408Y-124233917D01*
X144251408Y-124233917D02*
X144281438Y-124203886D01*
X144281438Y-124203886D02*
X144311469Y-124143825D01*
X144311469Y-124143825D02*
X144311469Y-123633304D01*
X144611776Y-123843518D02*
X144611776Y-124474161D01*
X144611776Y-123873549D02*
X144671837Y-123843518D01*
X144671837Y-123843518D02*
X144791959Y-123843518D01*
X144791959Y-123843518D02*
X144852021Y-123873549D01*
X144852021Y-123873549D02*
X144882051Y-123903580D01*
X144882051Y-123903580D02*
X144912082Y-123963641D01*
X144912082Y-123963641D02*
X144912082Y-124143825D01*
X144912082Y-124143825D02*
X144882051Y-124203886D01*
X144882051Y-124203886D02*
X144852021Y-124233917D01*
X144852021Y-124233917D02*
X144791959Y-124263947D01*
X144791959Y-124263947D02*
X144671837Y-124263947D01*
X144671837Y-124263947D02*
X144611776Y-124233917D01*
X126687979Y-124053947D02*
X126387673Y-124053947D01*
X126387673Y-124053947D02*
X126387673Y-123423304D01*
X127138439Y-124023917D02*
X127078377Y-124053947D01*
X127078377Y-124053947D02*
X126958255Y-124053947D01*
X126958255Y-124053947D02*
X126898194Y-124023917D01*
X126898194Y-124023917D02*
X126868163Y-123963855D01*
X126868163Y-123963855D02*
X126868163Y-123723610D01*
X126868163Y-123723610D02*
X126898194Y-123663549D01*
X126898194Y-123663549D02*
X126958255Y-123633518D01*
X126958255Y-123633518D02*
X127078377Y-123633518D01*
X127078377Y-123633518D02*
X127138439Y-123663549D01*
X127138439Y-123663549D02*
X127168469Y-123723610D01*
X127168469Y-123723610D02*
X127168469Y-123783672D01*
X127168469Y-123783672D02*
X126868163Y-123843733D01*
X127348653Y-123633518D02*
X127588898Y-123633518D01*
X127438745Y-124053947D02*
X127438745Y-123513396D01*
X127438745Y-123513396D02*
X127468775Y-123453335D01*
X127468775Y-123453335D02*
X127528836Y-123423304D01*
X127528836Y-123423304D02*
X127588898Y-123423304D01*
X127709020Y-123633518D02*
X127949265Y-123633518D01*
X127799112Y-123423304D02*
X127799112Y-123963855D01*
X127799112Y-123963855D02*
X127829142Y-124023917D01*
X127829142Y-124023917D02*
X127889203Y-124053947D01*
X127889203Y-124053947D02*
X127949265Y-124053947D01*
X128609938Y-123393274D02*
X128069387Y-124204100D01*
X128820153Y-124053947D02*
X128820153Y-123423304D01*
X128820153Y-123423304D02*
X128970306Y-123423304D01*
X128970306Y-123423304D02*
X129060398Y-123453335D01*
X129060398Y-123453335D02*
X129120459Y-123513396D01*
X129120459Y-123513396D02*
X129150489Y-123573457D01*
X129150489Y-123573457D02*
X129180520Y-123693580D01*
X129180520Y-123693580D02*
X129180520Y-123783672D01*
X129180520Y-123783672D02*
X129150489Y-123903794D01*
X129150489Y-123903794D02*
X129120459Y-123963855D01*
X129120459Y-123963855D02*
X129060398Y-124023917D01*
X129060398Y-124023917D02*
X128970306Y-124053947D01*
X128970306Y-124053947D02*
X128820153Y-124053947D01*
X129540887Y-124053947D02*
X129480826Y-124023917D01*
X129480826Y-124023917D02*
X129450796Y-123993886D01*
X129450796Y-123993886D02*
X129420765Y-123933825D01*
X129420765Y-123933825D02*
X129420765Y-123753641D01*
X129420765Y-123753641D02*
X129450796Y-123693580D01*
X129450796Y-123693580D02*
X129480826Y-123663549D01*
X129480826Y-123663549D02*
X129540887Y-123633518D01*
X129540887Y-123633518D02*
X129630979Y-123633518D01*
X129630979Y-123633518D02*
X129691041Y-123663549D01*
X129691041Y-123663549D02*
X129721071Y-123693580D01*
X129721071Y-123693580D02*
X129751102Y-123753641D01*
X129751102Y-123753641D02*
X129751102Y-123933825D01*
X129751102Y-123933825D02*
X129721071Y-123993886D01*
X129721071Y-123993886D02*
X129691041Y-124023917D01*
X129691041Y-124023917D02*
X129630979Y-124053947D01*
X129630979Y-124053947D02*
X129540887Y-124053947D01*
X129961316Y-123633518D02*
X130081439Y-124053947D01*
X130081439Y-124053947D02*
X130201561Y-123753641D01*
X130201561Y-123753641D02*
X130321684Y-124053947D01*
X130321684Y-124053947D02*
X130441806Y-123633518D01*
X130682052Y-123633518D02*
X130682052Y-124053947D01*
X130682052Y-123693580D02*
X130712082Y-123663549D01*
X130712082Y-123663549D02*
X130772143Y-123633518D01*
X130772143Y-123633518D02*
X130862235Y-123633518D01*
X130862235Y-123633518D02*
X130922297Y-123663549D01*
X130922297Y-123663549D02*
X130952327Y-123723610D01*
X130952327Y-123723610D02*
X130952327Y-124053947D01*
X120083393Y-124043947D02*
X120083393Y-123413304D01*
X120083393Y-123413304D02*
X120293607Y-123863763D01*
X120293607Y-123863763D02*
X120503821Y-123413304D01*
X120503821Y-123413304D02*
X120503821Y-124043947D01*
X120804128Y-124043947D02*
X120804128Y-123623518D01*
X120804128Y-123413304D02*
X120774097Y-123443335D01*
X120774097Y-123443335D02*
X120804128Y-123473365D01*
X120804128Y-123473365D02*
X120834158Y-123443335D01*
X120834158Y-123443335D02*
X120804128Y-123413304D01*
X120804128Y-123413304D02*
X120804128Y-123473365D01*
X121074403Y-124013917D02*
X121134464Y-124043947D01*
X121134464Y-124043947D02*
X121254587Y-124043947D01*
X121254587Y-124043947D02*
X121314648Y-124013917D01*
X121314648Y-124013917D02*
X121344679Y-123953855D01*
X121344679Y-123953855D02*
X121344679Y-123923825D01*
X121344679Y-123923825D02*
X121314648Y-123863763D01*
X121314648Y-123863763D02*
X121254587Y-123833733D01*
X121254587Y-123833733D02*
X121164495Y-123833733D01*
X121164495Y-123833733D02*
X121104434Y-123803702D01*
X121104434Y-123803702D02*
X121074403Y-123743641D01*
X121074403Y-123743641D02*
X121074403Y-123713610D01*
X121074403Y-123713610D02*
X121104434Y-123653549D01*
X121104434Y-123653549D02*
X121164495Y-123623518D01*
X121164495Y-123623518D02*
X121254587Y-123623518D01*
X121254587Y-123623518D02*
X121314648Y-123653549D01*
X121885230Y-124013917D02*
X121825169Y-124043947D01*
X121825169Y-124043947D02*
X121705046Y-124043947D01*
X121705046Y-124043947D02*
X121644985Y-124013917D01*
X121644985Y-124013917D02*
X121614955Y-123983886D01*
X121614955Y-123983886D02*
X121584924Y-123923825D01*
X121584924Y-123923825D02*
X121584924Y-123743641D01*
X121584924Y-123743641D02*
X121614955Y-123683580D01*
X121614955Y-123683580D02*
X121644985Y-123653549D01*
X121644985Y-123653549D02*
X121705046Y-123623518D01*
X121705046Y-123623518D02*
X121825169Y-123623518D01*
X121825169Y-123623518D02*
X121885230Y-123653549D01*
X122966332Y-124043947D02*
X122605965Y-124043947D01*
X122786149Y-124043947D02*
X122786149Y-123413304D01*
X122786149Y-123413304D02*
X122726087Y-123503396D01*
X122726087Y-123503396D02*
X122666026Y-123563457D01*
X122666026Y-123563457D02*
X122605965Y-123593488D01*
X123236608Y-123983886D02*
X123266638Y-124013917D01*
X123266638Y-124013917D02*
X123236608Y-124043947D01*
X123236608Y-124043947D02*
X123206577Y-124013917D01*
X123206577Y-124013917D02*
X123236608Y-123983886D01*
X123236608Y-123983886D02*
X123236608Y-124043947D01*
D11*
%TO.C,REF\u002A\u002A*%
X156250000Y-82450000D02*
G75*
G02*
X154350000Y-82450000I-950000J0D01*
G01*
X154350000Y-82450000D02*
G75*
G02*
X156250000Y-82450000I950000J0D01*
G01*
X156220000Y-79780000D02*
G75*
G02*
X154320000Y-79780000I-950000J0D01*
G01*
X154320000Y-79780000D02*
G75*
G02*
X156220000Y-79780000I950000J0D01*
G01*
X156270000Y-77080000D02*
G75*
G02*
X154370000Y-77080000I-950000J0D01*
G01*
X154370000Y-77080000D02*
G75*
G02*
X156270000Y-77080000I950000J0D01*
G01*
%TO.C,CS*%
X156270000Y-74430000D02*
G75*
G02*
X154370000Y-74430000I-950000J0D01*
G01*
X154370000Y-74430000D02*
G75*
G02*
X156270000Y-74430000I950000J0D01*
G01*
D12*
%TO.C,REF\u002A\u002A*%
X112070000Y-81842500D02*
X114610000Y-81842500D01*
X114610000Y-81842500D02*
X114610000Y-61522500D01*
X112070000Y-61522500D02*
X112070000Y-81842500D01*
X114610000Y-61522500D02*
X112070000Y-61522500D01*
X113440000Y-60882500D02*
G75*
G02*
X113240000Y-60882500I-100000J0D01*
G01*
X113240000Y-60882500D02*
G75*
G02*
X113440000Y-60882500I100000J0D01*
G01*
D11*
%TO.C,U1*%
X110355000Y-109110000D02*
X110355000Y-102310000D01*
X113155000Y-109110000D02*
X112755000Y-109110000D01*
X115755000Y-109110000D02*
X115355000Y-109110000D01*
X118255000Y-109110000D02*
X117855000Y-109110000D01*
X120755000Y-109110000D02*
X120355000Y-109110000D01*
X123355000Y-109110000D02*
X122955000Y-109110000D01*
X125855000Y-109110000D02*
X125455000Y-109110000D01*
X128455000Y-109110000D02*
X128055000Y-109110000D01*
X130955000Y-109110000D02*
X130555000Y-109110000D01*
X133555000Y-109110000D02*
X133155000Y-109110000D01*
X136055000Y-109110000D02*
X135655000Y-109110000D01*
X138555000Y-109110000D02*
X138155000Y-109110000D01*
X141155000Y-109110000D02*
X140755000Y-109110000D01*
X143655000Y-109110000D02*
X143255000Y-109110000D01*
X146255000Y-109110000D02*
X145855000Y-109110000D01*
X148755000Y-109110000D02*
X148355000Y-109110000D01*
X151255000Y-109110000D02*
X150855000Y-109110000D01*
X153855000Y-109110000D02*
X153455000Y-109110000D01*
X156355000Y-109110000D02*
X155955000Y-109110000D01*
X158955000Y-109110000D02*
X158555000Y-109110000D01*
X161355000Y-109110000D02*
X161055000Y-109110000D01*
X110355000Y-99710000D02*
X110355000Y-100110000D01*
X110355000Y-97110000D02*
X110355000Y-97510000D01*
X110355000Y-94910000D02*
X110355000Y-88110000D01*
X158688000Y-91117000D02*
X161355000Y-91117000D01*
X113155000Y-88110000D02*
X112755000Y-88110000D01*
X115755000Y-88110000D02*
X115355000Y-88110000D01*
X118255000Y-88110000D02*
X117855000Y-88110000D01*
X120755000Y-88110000D02*
X120355000Y-88110000D01*
X123355000Y-88110000D02*
X122955000Y-88110000D01*
X125855000Y-88110000D02*
X125455000Y-88110000D01*
X128455000Y-88110000D02*
X128055000Y-88110000D01*
X130955000Y-88110000D02*
X130555000Y-88110000D01*
X133555000Y-88110000D02*
X133155000Y-88110000D01*
X136055000Y-88110000D02*
X135655000Y-88110000D01*
X138555000Y-88110000D02*
X138155000Y-88110000D01*
X141155000Y-88110000D02*
X140755000Y-88110000D01*
X143655000Y-88110000D02*
X143255000Y-88110000D01*
X146255000Y-88110000D02*
X145855000Y-88110000D01*
X148755000Y-88110000D02*
X148355000Y-88110000D01*
X151255000Y-88110000D02*
X150855000Y-88110000D01*
X153855000Y-88110000D02*
X153455000Y-88110000D01*
X156355000Y-88110000D02*
X155955000Y-88110000D01*
X158688000Y-88110000D02*
X158688000Y-91117000D01*
X158955000Y-88110000D02*
X158555000Y-88110000D01*
X161355000Y-88110000D02*
X161355000Y-109110000D01*
X161355000Y-88110000D02*
X161055000Y-88110000D01*
D13*
%TO.C,Misc 2.*%
X148800000Y-121595000D02*
X151100000Y-121595000D01*
X146955000Y-120800000D02*
X146955000Y-116300000D01*
X152945000Y-116300000D02*
X152945000Y-120900000D01*
X148800000Y-115600000D02*
X151100000Y-115600000D01*
D12*
X147800000Y-123045000D02*
G75*
G02*
X147600000Y-123045000I-100000J0D01*
G01*
X147600000Y-123045000D02*
G75*
G02*
X147800000Y-123045000I100000J0D01*
G01*
D13*
X151705000Y-118600000D02*
G75*
G02*
X148195000Y-118600000I-1755000J0D01*
G01*
X148195000Y-118600000D02*
G75*
G02*
X151705000Y-118600000I1755000J0D01*
G01*
%TO.C,Select*%
X134570000Y-121595000D02*
X136870000Y-121595000D01*
X132725000Y-120800000D02*
X132725000Y-116300000D01*
X138715000Y-116300000D02*
X138715000Y-120900000D01*
X134570000Y-115600000D02*
X136870000Y-115600000D01*
D12*
X133570000Y-123045000D02*
G75*
G02*
X133370000Y-123045000I-100000J0D01*
G01*
X133370000Y-123045000D02*
G75*
G02*
X133570000Y-123045000I100000J0D01*
G01*
D13*
X137475000Y-118600000D02*
G75*
G02*
X133965000Y-118600000I-1755000J0D01*
G01*
X133965000Y-118600000D02*
G75*
G02*
X137475000Y-118600000I1755000J0D01*
G01*
%TO.C,Right/Up*%
X141720000Y-121595000D02*
X144020000Y-121595000D01*
X139875000Y-120800000D02*
X139875000Y-116300000D01*
X145865000Y-116300000D02*
X145865000Y-120900000D01*
X141720000Y-115600000D02*
X144020000Y-115600000D01*
D12*
X140720000Y-123045000D02*
G75*
G02*
X140520000Y-123045000I-100000J0D01*
G01*
X140520000Y-123045000D02*
G75*
G02*
X140720000Y-123045000I100000J0D01*
G01*
D13*
X144625000Y-118600000D02*
G75*
G02*
X141115000Y-118600000I-1755000J0D01*
G01*
X141115000Y-118600000D02*
G75*
G02*
X144625000Y-118600000I1755000J0D01*
G01*
%TO.C,Left/Down*%
X127520000Y-121590000D02*
X129820000Y-121590000D01*
X125675000Y-120795000D02*
X125675000Y-116295000D01*
X131665000Y-116295000D02*
X131665000Y-120895000D01*
X127520000Y-115595000D02*
X129820000Y-115595000D01*
D12*
X126520000Y-123040000D02*
G75*
G02*
X126320000Y-123040000I-100000J0D01*
G01*
X126320000Y-123040000D02*
G75*
G02*
X126520000Y-123040000I100000J0D01*
G01*
D13*
X130425000Y-118595000D02*
G75*
G02*
X126915000Y-118595000I-1755000J0D01*
G01*
X126915000Y-118595000D02*
G75*
G02*
X130425000Y-118595000I1755000J0D01*
G01*
%TO.C,Misc 1.*%
X120490000Y-121580000D02*
X122790000Y-121580000D01*
X118645000Y-120785000D02*
X118645000Y-116285000D01*
X124635000Y-116285000D02*
X124635000Y-120885000D01*
X120490000Y-115585000D02*
X122790000Y-115585000D01*
D12*
X119490000Y-123030000D02*
G75*
G02*
X119290000Y-123030000I-100000J0D01*
G01*
X119290000Y-123030000D02*
G75*
G02*
X119490000Y-123030000I100000J0D01*
G01*
D13*
X123395000Y-118585000D02*
G75*
G02*
X119885000Y-118585000I-1755000J0D01*
G01*
X119885000Y-118585000D02*
G75*
G02*
X123395000Y-118585000I1755000J0D01*
G01*
%TD*%
M02*
