%TF.GenerationSoftware,KiCad,Pcbnew,8.0.4*%
%TF.CreationDate,2024-09-18T19:22:47-07:00*%
%TF.ProjectId,ptpe_pcb,70747065-5f70-4636-922e-6b696361645f,rev?*%
%TF.SameCoordinates,Original*%
%TF.FileFunction,Soldermask,Top*%
%TF.FilePolarity,Negative*%
%FSLAX46Y46*%
G04 Gerber Fmt 4.6, Leading zero omitted, Abs format (unit mm)*
G04 Created by KiCad (PCBNEW 8.0.4) date 2024-09-18 19:22:47*
%MOMM*%
%LPD*%
G01*
G04 APERTURE LIST*
G04 Aperture macros list*
%AMRoundRect*
0 Rectangle with rounded corners*
0 $1 Rounding radius*
0 $2 $3 $4 $5 $6 $7 $8 $9 X,Y pos of 4 corners*
0 Add a 4 corners polygon primitive as box body*
4,1,4,$2,$3,$4,$5,$6,$7,$8,$9,$2,$3,0*
0 Add four circle primitives for the rounded corners*
1,1,$1+$1,$2,$3*
1,1,$1+$1,$4,$5*
1,1,$1+$1,$6,$7*
1,1,$1+$1,$8,$9*
0 Add four rect primitives between the rounded corners*
20,1,$1+$1,$2,$3,$4,$5,0*
20,1,$1+$1,$4,$5,$6,$7,0*
20,1,$1+$1,$6,$7,$8,$9,0*
20,1,$1+$1,$8,$9,$2,$3,0*%
G04 Aperture macros list end*
%ADD10RoundRect,0.102000X0.749000X-0.749000X0.749000X0.749000X-0.749000X0.749000X-0.749000X-0.749000X0*%
%ADD11C,1.702000*%
%ADD12C,1.500000*%
%ADD13R,1.700000X3.500000*%
%ADD14R,3.500000X1.700000*%
%ADD15C,1.574000*%
G04 APERTURE END LIST*
D10*
%TO.C,Misc1*%
X117140000Y-121635000D03*
D11*
X117140000Y-115135000D03*
X121640000Y-121635000D03*
X121640000Y-115135000D03*
%TD*%
D12*
%TO.C,CS*%
X155320000Y-74430000D03*
%TD*%
D13*
%TO.C,Pico*%
X159985000Y-88820000D03*
X157445000Y-88820000D03*
X154905000Y-88820000D03*
X152365000Y-88820000D03*
X149825000Y-88820000D03*
X147285000Y-88820000D03*
X144745000Y-88820000D03*
X142205000Y-88820000D03*
X139665000Y-88820000D03*
X137125000Y-88820000D03*
X134585000Y-88820000D03*
X132045000Y-88820000D03*
X129505000Y-88820000D03*
X126965000Y-88820000D03*
X124425000Y-88820000D03*
X121885000Y-88820000D03*
X119345000Y-88820000D03*
X116805000Y-88820000D03*
X114265000Y-88820000D03*
X111725000Y-88820000D03*
X111725000Y-108400000D03*
X114265000Y-108400000D03*
X116805000Y-108400000D03*
X119345000Y-108400000D03*
X121885000Y-108400000D03*
X124425000Y-108400000D03*
X126965000Y-108400000D03*
X129505000Y-108400000D03*
X132045000Y-108400000D03*
X134585000Y-108400000D03*
X137125000Y-108400000D03*
X139665000Y-108400000D03*
X142205000Y-108400000D03*
X144745000Y-108400000D03*
X147285000Y-108400000D03*
X149825000Y-108400000D03*
X152365000Y-108400000D03*
X154905000Y-108400000D03*
X157445000Y-108400000D03*
X159985000Y-108400000D03*
D14*
X111055000Y-96070000D03*
X111055000Y-98610000D03*
X111055000Y-101150000D03*
%TD*%
D10*
%TO.C,Left/Down*%
X124170000Y-121645000D03*
D11*
X124170000Y-115145000D03*
X128670000Y-121645000D03*
X128670000Y-115145000D03*
%TD*%
D10*
%TO.C,Right/Up*%
X138370000Y-121650000D03*
D11*
X138370000Y-115150000D03*
X142870000Y-121650000D03*
X142870000Y-115150000D03*
%TD*%
D10*
%TO.C,Select*%
X131220000Y-121650000D03*
D11*
X131220000Y-115150000D03*
X135720000Y-121650000D03*
X135720000Y-115150000D03*
%TD*%
D12*
%TO.C,REF\u002A\u002A*%
X155300000Y-82450000D03*
%TD*%
D10*
%TO.C,Misc2*%
X145450000Y-121650000D03*
D11*
X145450000Y-115150000D03*
X149950000Y-121650000D03*
X149950000Y-115150000D03*
%TD*%
D12*
%TO.C,REF\u002A\u002A*%
X155320000Y-77110000D03*
%TD*%
%TO.C,REF\u002A\u002A*%
X155240000Y-79780000D03*
%TD*%
D15*
%TO.C,REF\u002A\u002A*%
X109900000Y-61910000D03*
X109900000Y-64450000D03*
X109900000Y-66990000D03*
X109900000Y-69530000D03*
X109900000Y-72070000D03*
X109900000Y-74610000D03*
X109900000Y-77150000D03*
X109900000Y-79690000D03*
%TD*%
M02*
