M48
; DRILL file {KiCad 8.0.4} date 2024-08-30T14:46:53-0700
; FORMAT={-:-/ absolute / inch / decimal}
; #@! TF.CreationDate,2024-08-30T14:46:53-07:00
; #@! TF.GenerationSoftware,Kicad,Pcbnew,8.0.4
; #@! TF.FileFunction,Plated,1,2,PTH
FMAT,2
INCH
; #@! TA.AperFunction,Plated,PTH,ViaDrill
T1C0.0118
; #@! TA.AperFunction,Plated,PTH,ComponentDrill
T2C0.0390
; #@! TA.AperFunction,Plated,PTH,ComponentDrill
T3C0.0402
%
G90
G05
T1
X4.3866Y-4.6394
X4.4728Y-3.8531
X4.4728Y-3.9031
X4.5504Y-2.9429
X4.5504Y-4.6441
X4.572Y-3.3957
X4.5728Y-3.0248
X4.5732Y-3.5953
X4.576Y-4.1638
X4.5776Y-4.363
X4.6051Y-2.589
X4.6161Y-4.3646
X4.6197Y-3.5957
X4.6236Y-3.3957
X4.6268Y-4.163
X4.7213Y-3.1583
X4.7409Y-2.7547
X4.9004Y-3.335
X4.9087Y-2.8799
X5.0181Y-3.0425
X5.0492Y-3.7673
X5.0528Y-3.8295
X5.0697Y-4.3705
X5.0713Y-4.1571
X5.0768Y-3.3972
X5.0807Y-3.5913
X5.1181Y-3.3972
X5.1181Y-4.1559
X5.1193Y-3.5929
X5.122Y-4.3673
X5.2083Y-3.1764
X5.3071Y-3.3142
X5.3858Y-2.4028
X5.3858Y-2.4579
X5.5102Y-2.3882
X5.5173Y-2.4539
X5.5689Y-4.3685
X5.572Y-4.1543
X5.5811Y-3.5949
X5.6098Y-3.3591
X5.6181Y-4.3689
X5.6193Y-3.5945
X5.622Y-4.1555
X5.6346Y-3.3921
X5.8986Y-4.1409
X6.074Y-3.3898
X6.076Y-3.6
X6.0791Y-4.1685
X6.0803Y-4.3669
X6.1087Y-4.7854
X6.1134Y-4.3657
X6.1142Y-3.3902
X6.1173Y-3.6
X6.1177Y-4.1689
X6.187Y-4.5882
X6.248Y-4.8283
X6.2976Y-4.139
T2
X4.7004Y-4.5407
X4.7004Y-4.7967
X4.8776Y-4.5407
X4.8776Y-4.7967
X4.9772Y-4.5411
X4.9772Y-4.797
X5.1543Y-4.5411
X5.1543Y-4.797
X5.2547Y-4.5413
X5.2547Y-4.7972
X5.4319Y-4.5413
X5.4319Y-4.7972
X5.5362Y-4.5413
X5.5362Y-4.7972
X5.7134Y-4.5413
X5.7134Y-4.7972
X5.815Y-4.5413
X5.815Y-4.7972
X5.9921Y-4.5413
X5.9921Y-4.7972
T3
X4.4622Y-2.4721
X4.4622Y-2.5721
X4.4622Y-2.6721
X4.4622Y-2.7721
X4.4622Y-2.8721
X4.4622Y-2.9721
X4.4622Y-3.0721
X4.4622Y-3.1721
M30
